<?xml version="1.0" encoding="utf-8"?>
<!-- Generator: Adobe Illustrator 16.0.0, SVG Export Plug-In . SVG Version: 6.00 Build 0)  -->
<!DOCTYPE svg PUBLIC "-//W3C//DTD SVG 1.1//EN" "http://www.w3.org/Graphics/SVG/1.1/DTD/svg11.dtd">
<svg version="1.1" id="Layer_1" xmlns="http://www.w3.org/2000/svg" xmlns:xlink="http://www.w3.org/1999/xlink" x="0px" y="0px"
	 width="587px" height="587px" viewBox="0 0 587 587" enable-background="new 0 0 587 587" xml:space="preserve">
<circle fill-rule="evenodd" clip-rule="evenodd" fill="#FFE774" cx="293.5" cy="293.5" r="293.5"/>
<path fill-rule="evenodd" clip-rule="evenodd" fill="#002A41" d="M294.245,206.953c1.125,0.102,2.24-0.23,3.547-0.987
	c15.852-9.168,31.77-18.216,47.703-27.232c5.422-3.067,11.006-5.844,16.426-8.908c19.332-10.923,38.621-21.915,57.932-32.869
	c0.982-0.558,2.02-1.022,3.674-1.851c-0.02,2.101-0.031,3.58-0.045,5.059c-0.408,46.167-1.9,92.355-0.945,138.494
	c1.178,57.177-0.855,114.306-0.566,171.457c0.006,1.4-0.023,2.803-0.041,4.854c-1.543-0.719-2.691-1.146-3.734-1.756
	c-9.756-5.691-19.471-11.451-29.24-17.117c-5.895-3.42-11.918-6.617-17.789-10.074c-18.908-11.133-37.777-22.327-56.646-33.524
	c-6.428-3.813-12.879-7.601-19.174-11.62c-2.23-1.426-3.877-1.237-6.061,0.025c-15.759,9.092-31.567,18.106-47.408,27.057
	c-7.471,4.222-15.101,8.161-22.573,12.38c-17.589,9.934-35.124,19.966-52.689,29.939c-0.789,0.447-1.662,0.747-3.141,1.397
	c0.019-2.188,0.033-3.705,0.047-5.223c0.444-50.285,1.861-100.591,1.066-150.859c-0.835-52.929,0.524-105.819,0.442-158.728
	c-0.002-1.396,0.024-2.793,0.042-4.84c1.572,0.71,2.731,1.116,3.772,1.724c10.264,5.983,20.489,12.036,30.767,17.996
	c5.381,3.121,10.904,6.001,16.264,9.156c18.504,10.891,36.971,21.84,55.436,32.797c6.733,3.993,13.481,7.969,20.09,12.158
	C292.423,206.509,293.335,206.872,294.245,206.953 M228.83,292.776c4.617,2.495,8.486,4.406,12.17,6.622
	c7.825,4.701,15.483,9.684,23.341,14.33c8.894,5.259,17.896,10.342,26.953,15.316c1.154,0.635,3.203,0.688,4.365,0.09
	c7.412-3.816,14.744-7.803,22.01-11.898c12.461-7.024,24.859-14.164,37.273-21.269c0.846-0.483,1.619-1.098,2.982-2.031
	c-4.24-2.294-8.004-4.149-11.584-6.302c-7.822-4.706-15.488-9.678-23.342-14.33c-8.289-4.905-16.854-9.354-25.027-14.438
	c-3.412-2.123-5.854-1.849-9.143,0.094c-12.621,7.455-25.391,14.657-38.157,21.864C243.737,284.739,236.703,288.478,228.83,292.776z
	 M380.862,207.497c-14.936,8.25-29.301,16.185-44.297,24.469c14.914,8.832,29.088,17.228,43.852,25.971
	C380.567,240.868,380.712,224.531,380.862,207.497z M251.625,231.57c-15.067-8.649-29.157-16.737-43.355-24.888
	c-0.147,16.678-0.292,32.923-0.44,49.826C222.553,248.124,236.756,240.037,251.625,231.57z M378.929,380.317
	c0.146-16.705,0.291-32.951,0.441-50.011c-14.83,8.427-29.111,16.547-43.971,24.992
	C350.351,363.892,364.462,372.001,378.929,380.317z M206.948,329.113c-0.15,16.957-0.294,33.227-0.443,50.091
	c14.754-8.146,29.043-16.037,43.956-24.272C235.679,346.162,221.591,337.802,206.948,329.113z"/>
</svg>
