<?xml version="1.0" encoding="iso-8859-1"?>
<!-- Generator: Adobe Illustrator 19.0.0, SVG Export Plug-In . SVG Version: 6.00 Build 0)  -->
<svg version="1.1" id="Layer_1" xmlns="http://www.w3.org/2000/svg" xmlns:xlink="http://www.w3.org/1999/xlink" x="0px" y="0px"
	 viewBox="0 0 512 512" style="enable-background:new 0 0 512 512;" xml:space="preserve">
<circle style="fill:#FFC61B;" cx="256" cy="256" r="256"/>
<path style="fill:#EAA22F;" d="M512,256c0-0.896-0.024-1.786-0.034-2.681L391.944,133.298L224.33,282.081l-0.209-0.209l-8.499,7.937
	l-22.344,19.832l0.534,0.534l-73.564,68.701l133.089,133.089c0.888,0.009,1.772,0.034,2.663,0.034C397.384,512,512,397.384,512,256z
	"/>
<path style="fill:#59595B;" d="M378.54,384H133.458c-10.869,0-19.68-8.811-19.68-19.682V147.68c0-10.869,8.811-19.68,19.68-19.68
	H378.54c10.869,0,19.682,8.811,19.682,19.68v216.638C398.222,375.189,389.411,384,378.54,384z"/>
<path style="fill:#272525;" d="M378.54,128H255.855v256H378.54c10.869,0,19.682-8.811,19.682-19.682V147.682
	C398.222,136.811,389.411,128,378.54,128z"/>
<path style="fill:#386895;" d="M398.222,147.682c0-10.869-8.811-19.682-19.682-19.682H133.46c-10.871,0-19.682,8.811-19.682,19.682
	v20.744h284.444V147.682z"/>
<path style="fill:#273B7A;" d="M398.222,147.682c0-10.869-8.811-19.682-19.682-19.682H255.855v40.426h142.367V147.682z"/>
<path style="fill:#808183;" d="M113.988,367.049c1.333,9.575,9.528,16.951,19.47,16.951H378.54c9.942,0,18.137-7.378,19.47-16.951
	L113.988,367.049L113.988,367.049z"/>
<path style="fill:#59595B;" d="M255.857,367.049V384h122.685c9.942,0,18.137-7.378,19.47-16.951L255.857,367.049L255.857,367.049z"
	/>
<path style="fill:#D0D1D3;" d="M373.226,158.599H138.774c-4.046,0-7.327-3.281-7.327-7.327l0,0c0-4.046,3.281-7.327,7.327-7.327
	h234.451c4.046,0,7.327,3.281,7.327,7.327l0,0C380.552,155.319,377.272,158.599,373.226,158.599z"/>
<path style="fill:#A6A8AA;" d="M373.226,143.946H255.857v14.653h117.369c4.046,0,7.327-3.281,7.327-7.327
	S377.272,143.946,373.226,143.946z"/>
<path style="fill:#71E2EF;" d="M170.667,207.731h-28.444c-1.903,0-3.448-1.545-3.448-3.448s1.545-3.448,3.448-3.448h28.444
	c1.903,0,3.448,1.545,3.448,3.448S172.57,207.731,170.667,207.731z"/>
<path style="fill:#FFFFFF;" d="M341.333,207.731H199.111c-1.903,0-3.448-1.545-3.448-3.448s1.545-3.448,3.448-3.448h142.222
	c1.903,0,3.448,1.545,3.448,3.448S343.238,207.731,341.333,207.731z"/>
<path style="fill:#71E2EF;" d="M170.667,231.176h-28.444c-1.903,0-3.448-1.545-3.448-3.448s1.545-3.448,3.448-3.448h28.444
	c1.903,0,3.448,1.545,3.448,3.448S172.57,231.176,170.667,231.176z"/>
<path style="fill:#FFFFFF;" d="M341.333,231.176H199.111c-1.903,0-3.448-1.545-3.448-3.448s1.545-3.448,3.448-3.448h142.222
	c1.903,0,3.448,1.545,3.448,3.448S343.238,231.176,341.333,231.176z"/>
<path style="fill:#71E2EF;" d="M170.667,254.621h-28.444c-1.903,0-3.448-1.545-3.448-3.448s1.545-3.448,3.448-3.448h28.444
	c1.903,0,3.448,1.545,3.448,3.448S172.57,254.621,170.667,254.621z"/>
<path style="fill:#FFFFFF;" d="M369.778,254.621H199.111c-1.903,0-3.448-1.545-3.448-3.448s1.545-3.448,3.448-3.448h170.667
	c1.903,0,3.448,1.545,3.448,3.448S371.683,254.621,369.778,254.621z"/>
<path style="fill:#71E2EF;" d="M170.667,278.066h-28.444c-1.903,0-3.448-1.545-3.448-3.448s1.545-3.448,3.448-3.448h28.444
	c1.903,0,3.448,1.545,3.448,3.448S172.57,278.066,170.667,278.066z"/>
<path style="fill:#FFFFFF;" d="M284.444,278.066h-85.333c-1.903,0-3.448-1.545-3.448-3.448s1.545-3.448,3.448-3.448h85.333
	c1.903,0,3.448,1.545,3.448,3.448S286.349,278.066,284.444,278.066z"/>
<path style="fill:#71E2EF;" d="M170.667,301.511h-28.444c-1.903,0-3.448-1.545-3.448-3.448s1.545-3.448,3.448-3.448h28.444
	c1.903,0,3.448,1.545,3.448,3.448S172.57,301.511,170.667,301.511z"/>
<path style="fill:#FFFFFF;" d="M341.333,301.511H199.111c-1.903,0-3.448-1.545-3.448-3.448s1.545-3.448,3.448-3.448h142.222
	c1.903,0,3.448,1.545,3.448,3.448S343.238,301.511,341.333,301.511z"/>
<path style="fill:#71E2EF;" d="M170.667,324.956h-28.444c-1.903,0-3.448-1.545-3.448-3.448s1.545-3.448,3.448-3.448h28.444
	c1.903,0,3.448,1.545,3.448,3.448S172.57,324.956,170.667,324.956z"/>
<path style="fill:#FFFFFF;" d="M284.444,324.956h-85.333c-1.903,0-3.448-1.545-3.448-3.448s1.545-3.448,3.448-3.448h85.333
	c1.903,0,3.448,1.545,3.448,3.448S286.349,324.956,284.444,324.956z"/>
<g>
	<path style="fill:#D0D1D3;" d="M341.333,200.835h-85.476v6.896h85.476c1.903,0,3.448-1.545,3.448-3.448
		S343.237,200.835,341.333,200.835z"/>
	<path style="fill:#D0D1D3;" d="M341.333,224.28h-85.476v6.896h85.476c1.903,0,3.448-1.545,3.448-3.448
		S343.237,224.28,341.333,224.28z"/>
	<path style="fill:#D0D1D3;" d="M369.778,247.725H255.857v6.896h113.921c1.903,0,3.448-1.545,3.448-3.448
		S371.681,247.725,369.778,247.725z"/>
	<path style="fill:#D0D1D3;" d="M284.444,271.17h-28.588v6.896h28.588c1.903,0,3.448-1.545,3.448-3.448
		S286.348,271.17,284.444,271.17z"/>
	<path style="fill:#D0D1D3;" d="M341.333,294.615h-85.476v6.896h85.476c1.903,0,3.448-1.545,3.448-3.448
		S343.237,294.615,341.333,294.615z"/>
	<path style="fill:#D0D1D3;" d="M284.444,318.061h-28.588v6.896h28.588c1.903,0,3.448-1.545,3.448-3.448
		S286.348,318.061,284.444,318.061z"/>
</g>
<g>
</g>
<g>
</g>
<g>
</g>
<g>
</g>
<g>
</g>
<g>
</g>
<g>
</g>
<g>
</g>
<g>
</g>
<g>
</g>
<g>
</g>
<g>
</g>
<g>
</g>
<g>
</g>
<g>
</g>
</svg>
