<?xml version="1.0" encoding="iso-8859-1"?>
<!-- Generator: Adobe Illustrator 19.0.0, SVG Export Plug-In . SVG Version: 6.00 Build 0)  -->
<svg version="1.1" id="Layer_1" xmlns="http://www.w3.org/2000/svg" xmlns:xlink="http://www.w3.org/1999/xlink" x="0px" y="0px"
	 viewBox="0 0 512 512" style="enable-background:new 0 0 512 512;" xml:space="preserve">
<circle style="fill:#0575A5;" cx="256" cy="256" r="256"/>
<path style="fill:#025E90;" d="M508.813,296.32L380.227,167.744c-1.644-1.641-3.766-2.445-5.924-2.445H137.69
	c-2.161,0-4.278,0.804-5.924,2.445c-1.649,1.651-2.452,3.776-2.452,5.932v151.222c0,2.12,0.804,4.273,2.452,5.926
	c1.646,1.641,3.763,2.442,5.924,2.442h-35.697c-0.366,0-0.727,0.148-0.988,0.407c-0.294,0.294-0.438,0.655-0.438,1.019v3.517h0.036
	l2.268,2.263l170.844,170.844C393.339,503.137,490.373,412.831,508.813,296.32z"/>
<path style="fill:#34495E;" d="M382.687,324.882c0,2.143-0.819,4.298-2.447,5.926c-1.641,1.654-3.786,2.458-5.939,2.458H137.69
	c-2.143,0-4.291-0.801-5.939-2.458c-1.626-1.631-2.447-3.786-2.447-5.926V173.676c0-2.156,0.822-4.298,2.447-5.934
	c1.649-1.615,3.796-2.445,5.939-2.445H374.3c2.153,0,4.301,0.829,5.939,2.445c1.628,1.636,2.447,3.779,2.447,5.934V324.882z"/>
<rect x="142.492" y="178.483" style="fill:#E1EFFA;" width="226.995" height="141.619"/>
<rect x="149.35" y="185.318" style="fill:#FFFFFF;" width="213.299" height="127.9"/>
<path style="fill:#283A4D;" d="M258.852,171.878c0,1.572-1.283,2.857-2.852,2.857c-1.58,0-2.847-1.285-2.847-2.857
	c0-1.585,1.267-2.836,2.847-2.836C257.569,169.039,258.852,170.294,258.852,171.878z"/>
<path style="fill:#5D6D7E;" d="M257.16,171.878c0,0.648-0.52,1.18-1.16,1.18c-0.645,0-1.162-0.532-1.162-1.18
	c0-0.632,0.517-1.139,1.162-1.139C256.64,170.739,257.16,171.246,257.16,171.878z"/>
<path style="fill:#E1EFFA;" d="M411.43,338.186c-4.521,5.21-11.203,8.515-18.647,8.515H119.209c-7.444,0-14.124-3.305-18.639-8.515
	H411.43z"/>
<path style="fill:#FFFFFF;" d="M411.423,338.196H100.572v-3.517c0-0.358,0.141-0.722,0.422-1.006
	c0.274-0.269,0.632-0.407,0.991-0.407H410.01c0.366,0,0.719,0.138,0.998,0.407c0.274,0.282,0.415,0.648,0.415,1.006V338.196z"/>
<path style="fill:#B8D1E6;" d="M284.864,334.106c0,0.412-0.161,0.845-0.492,1.175c-0.323,0.312-0.742,0.479-1.172,0.479h-54.403
	c-0.428,0-0.858-0.164-1.175-0.479c-0.323-0.33-0.492-0.763-0.492-1.175v-0.837h57.738v0.837H284.864z"/>
<g>
	<path style="fill:#34495E;" d="M219.19,237.248l-4.288,4.283l-31.409,31.409c1.874,0.694,3.374,2.186,4.091,4.055l4.26-4.26
		l27.146-27.141l4.26-4.257C221.384,240.62,219.889,239.117,219.19,237.248z"/>
	<path style="fill:#34495E;" d="M263.752,268.652l4.293,4.288c-1.874,0.694-3.366,2.156-4.114,4.037l-4.234-4.265l-27.116-27.116
		l-4.268-4.257c1.874-0.719,3.343-2.222,4.058-4.091l4.265,4.262L263.752,268.652z"/>
	<path style="fill:#34495E;" d="M328.466,225.682l-4.26,4.257l-42.803,42.798l-4.232,4.242c-0.75-1.882-2.214-3.343-4.091-4.037
		l4.255-4.288l42.811-42.806l4.296-4.288C325.1,223.427,326.597,224.929,328.466,225.682z"/>
</g>
<g>
	<path style="fill:#FF8E31;" d="M191.844,272.735c-1.004-1.661-2.388-3.049-4.058-4.083c-1.953-1.231-4.291-1.961-6.792-1.961
		c-7.084,0-12.838,5.763-12.838,12.844c0,7.05,5.755,12.805,12.838,12.805c7.081,0,12.838-5.755,12.838-12.805
		C193.83,277.028,193.108,274.693,191.844,272.735z M180.992,286.584c-3.919,0-7.084-3.167-7.084-7.05
		c0-3.919,3.164-7.081,7.084-7.081c0.893,0,1.725,0.169,2.501,0.484c1.874,0.694,3.374,2.186,4.091,4.055
		c0.32,0.778,0.489,1.649,0.489,2.54C188.073,283.418,184.876,286.584,180.992,286.584z"/>
	<path style="fill:#FF8E31;" d="M225.787,221.903c-7.078,0-12.841,5.757-12.841,12.838c0,2.506,0.719,4.838,1.956,6.792
		c1.039,1.672,2.419,3.054,4.091,4.063c1.956,1.275,4.288,1.984,6.794,1.984c2.473,0,4.833-0.709,6.794-1.984
		c1.669-1.009,3.044-2.419,4.055-4.083c1.236-1.961,1.953-4.298,1.953-6.771C238.589,227.658,232.837,221.903,225.787,221.903z
		 M228.316,241.339c-0.768,0.312-1.636,0.479-2.529,0.479c-0.896,0-1.759-0.164-2.534-0.479c-1.869-0.719-3.364-2.222-4.063-4.091
		c-0.312-0.776-0.481-1.615-0.481-2.506c0-3.912,3.159-7.084,7.078-7.084c3.884,0,7.05,3.169,7.05,7.084
		c0,0.891-0.141,1.731-0.463,2.506C231.657,239.117,230.19,240.62,228.316,241.339z"/>
	<path style="fill:#FF8E31;" d="M281.403,272.735c-1.011-1.661-2.422-3.049-4.068-4.083c-1.951-1.231-4.283-1.961-6.789-1.961
		c-2.501,0-4.833,0.727-6.792,1.961c-1.636,1.006-3.023,2.419-4.058,4.06c-1.265,1.979-1.984,4.316-1.984,6.822
		c0,7.05,5.755,12.805,12.836,12.805c7.084,0,12.838-5.755,12.838-12.805C283.382,277.028,282.662,274.693,281.403,272.735z
		 M270.546,286.584c-3.886,0-7.081-3.167-7.081-7.05c0-0.893,0.172-1.787,0.466-2.557c0.748-1.882,2.24-3.343,4.114-4.037
		c0.776-0.315,1.636-0.484,2.501-0.484c0.893,0,1.756,0.169,2.534,0.484c1.874,0.694,3.341,2.156,4.091,4.037
		c0.284,0.771,0.458,1.664,0.458,2.557C277.627,283.418,274.465,286.584,270.546,286.584z"/>
	<path style="fill:#FF8E31;" d="M331,206.213c-7.055,0-12.81,5.76-12.81,12.836c0,2.511,0.719,4.838,1.956,6.799
		c1.037,1.636,2.419,3.054,4.06,4.091c1.956,1.229,4.288,1.953,6.794,1.953c7.081,0,12.838-5.76,12.838-12.844
		C343.839,211.973,338.081,206.213,331,206.213z M331,226.132c-0.893,0-1.761-0.169-2.534-0.451
		c-1.866-0.75-3.364-2.255-4.024-4.122c-0.323-0.791-0.494-1.615-0.494-2.511c0-3.884,3.169-7.076,7.055-7.076
		c3.912,0,7.081,3.192,7.081,7.076C338.081,222.979,334.912,226.132,331,226.132z"/>
</g>
<g>
</g>
<g>
</g>
<g>
</g>
<g>
</g>
<g>
</g>
<g>
</g>
<g>
</g>
<g>
</g>
<g>
</g>
<g>
</g>
<g>
</g>
<g>
</g>
<g>
</g>
<g>
</g>
<g>
</g>
</svg>
