<?xml version="1.0" encoding="iso-8859-1"?>
<!-- Generator: Adobe Illustrator 19.0.0, SVG Export Plug-In . SVG Version: 6.00 Build 0)  -->
<svg version="1.1" id="Layer_1" xmlns="http://www.w3.org/2000/svg" xmlns:xlink="http://www.w3.org/1999/xlink" x="0px" y="0px"
	 viewBox="0 0 512 512" style="enable-background:new 0 0 512 512;" xml:space="preserve">
<circle style="fill:#FFD55C;" cx="230.148" cy="256.001" r="230.138"/>
<path style="fill:#FFC640;" d="M451.194,192l-40.143,70.277l-51.218-25.664l-77.615,129.322l-53.018-53.015l-51.126,25.506
	l-75.809-75.695l-51.082,51.085L0.213,264.268c-0.099-2.749-0.21-5.494-0.21-8.269c0,127.1,103.039,230.14,230.14,230.14
	c127.104,0,230.14-103.039,230.14-230.14C460.282,233.782,457.07,212.326,451.194,192z"/>
<path style="fill:#FFB733;" d="M0.4,269.378v-12.982H25.23v24.826H1.385c0.029,0.265,0.061,0.529,0.091,0.794H25.23v24.715H5.626
	c0.059,0.264,0.113,0.53,0.173,0.794H25.23v24.829H12.991c0.093,0.265,0.186,0.529,0.28,0.794H25.23v24.715h-1.494
	c0.131,0.265,0.263,0.529,0.394,0.794h1.099v2.207c0.259,0.505,0.531,1.002,0.794,1.504v-3.711h24.712v24.823H38.523
	c0.176,0.264,0.346,0.531,0.522,0.794h11.69v15.855c0.265,0.329,0.527,0.658,0.794,0.986v-16.84h24.826v24.715H58.237
	c0.236,0.265,0.467,0.53,0.704,0.794h17.416v17.416c0.263,0.237,0.529,0.469,0.794,0.704v-18.12h24.715v24.829H85.028
	c0.328,0.266,0.657,0.529,0.986,0.794h15.852v11.688c0.263,0.177,0.53,0.346,0.794,0.522v-12.21h24.826v24.715h-3.705
	c0.502,0.263,1,0.534,1.504,0.794h2.201v1.096c0.265,0.132,0.528,0.264,0.794,0.394v-1.491h24.718v11.957
	c0.265,0.094,0.529,0.187,0.794,0.28v-12.237h24.823v19.427c0.264,0.06,0.529,0.114,0.794,0.173v-19.6h24.718v23.751
	c0.265,0.03,0.528,0.062,0.794,0.091v-23.842h24.826v24.826h-12.982c4.429,0.254,8.887,0.396,13.379,0.396s8.95-0.143,13.379-0.396
	h-12.982v-24.826h24.829v23.842c0.265-0.029,0.529-0.061,0.794-0.091v-23.751h24.712v19.601c0.264-0.059,0.53-0.113,0.794-0.173
	v-19.428h24.826v12.237c0.265-0.093,0.529-0.186,0.794-0.28v-11.957h24.712v1.494c0.265-0.131,0.529-0.263,0.794-0.394v-1.099h2.207
	c0.504-0.259,1.002-0.531,1.504-0.794h-3.711v-24.715h24.829v12.213c0.264-0.176,0.531-0.346,0.794-0.522v-11.69h15.855
	c0.329-0.265,0.658-0.527,0.986-0.794h-16.84v-24.829h24.715v18.123c0.264-0.236,0.53-0.467,0.794-0.704v-17.419h17.419
	c0.237-0.263,0.469-0.529,0.704-0.794h-18.123v-24.715h24.826v16.844c0.266-0.328,0.529-0.657,0.794-0.986v-15.859h11.694
	c0.177-0.263,0.346-0.53,0.522-0.794h-12.22v-24.825h24.715v3.711c0.263-0.502,0.534-1,0.794-1.504v-2.207h1.099
	c0.132-0.265,0.264-0.528,0.394-0.794h-1.494v-24.715h11.959c0.094-0.265,0.187-0.529,0.28-0.794h-12.239v-24.829h19.431
	c0.06-0.264,0.114-0.529,0.173-0.794h-19.604v-24.715h23.754c0.03-0.265,0.062-0.528,0.091-0.794h-23.845v-24.826h24.829v12.982
	c0.254-4.429,0.396-8.887,0.396-13.379c0-4.493-0.143-8.95-0.396-13.379V255.6h-24.829v-24.826h23.845
	c-0.029-0.265-0.061-0.529-0.091-0.794h-23.754v-24.715h19.604c-0.059-0.264-0.113-0.53-0.173-0.794h-19.431v-24.829h12.239
	c-0.093-0.265-0.186-0.529-0.28-0.794h-11.959v-24.715h1.494c-0.131-0.265-0.263-0.529-0.394-0.794h-1.099v-2.207
	c-0.259-0.505-0.531-1.002-0.794-1.504v3.711h-24.715v-24.823h12.216c-0.176-0.264-0.346-0.531-0.522-0.794h-11.694v-15.859
	c-0.265-0.329-0.527-0.658-0.794-0.986v16.844h-24.826v-24.715h18.123c-0.236-0.264-0.467-0.53-0.704-0.794h-17.419V84.796
	c-0.263-0.237-0.529-0.469-0.794-0.704v18.123h-24.715v-24.83h16.84c-0.328-0.266-0.657-0.529-0.986-0.794h-15.855v-11.69
	c-0.263-0.177-0.53-0.347-0.794-0.522v12.213h-24.829V51.876h3.711c-0.502-0.263-1-0.534-1.504-0.794h-2.207v-1.099
	c-0.265-0.132-0.528-0.264-0.794-0.394v1.494h-24.712V39.125c-0.265-0.094-0.529-0.187-0.794-0.28v12.237h-24.826V31.655
	c-0.264-0.06-0.529-0.114-0.794-0.173v19.601h-24.712V27.332c-0.265-0.03-0.528-0.062-0.794-0.091v23.842h-24.829V26.256h12.982
	c-4.429-0.254-8.887-0.396-13.379-0.396s-8.95,0.143-13.379,0.396h12.982v24.826h-24.826V27.241
	c-0.265,0.029-0.529,0.061-0.794,0.091v23.751h-24.718v-19.6c-0.264,0.059-0.53,0.113-0.794,0.173v19.427h-24.823V38.846
	c-0.265,0.093-0.529,0.186-0.794,0.28v11.957h-24.718v-1.491c-0.265,0.131-0.529,0.263-0.794,0.394v1.096h-2.201
	c-0.504,0.259-1.002,0.531-1.504,0.794h3.705v24.715h-24.826V64.381c-0.264,0.176-0.531,0.346-0.794,0.522v11.689H86.013
	c-0.329,0.265-0.658,0.527-0.986,0.794h16.837v24.829H77.149v-18.12c-0.264,0.236-0.53,0.467-0.794,0.704v17.416H58.94
	c-0.237,0.263-0.469,0.529-0.704,0.794h18.12v24.715H51.529v-16.84c-0.267,0.328-0.529,0.657-0.794,0.986v15.855h-11.69
	c-0.177,0.263-0.347,0.53-0.522,0.794h12.213v24.823H26.024v-3.711c-0.263,0.502-0.534,1-0.794,1.504v2.207H24.13
	c-0.132,0.265-0.264,0.528-0.394,0.794h1.494v24.715H13.27c-0.094,0.265-0.187,0.529-0.28,0.794H25.23v24.829H5.799
	c-0.06,0.264-0.114,0.529-0.173,0.794H25.23v24.715H1.476c-0.03,0.265-0.062,0.528-0.091,0.794H25.23v24.826H0.4v-12.982
	c-0.254,4.429-0.396,8.887-0.396,13.379C0.004,260.494,0.146,264.949,0.4,269.378z M26.024,256.395h24.712v24.826H26.024V256.395z
	 M102.658,307.525h24.826v24.829h-24.826V307.525z M101.865,332.354H77.149v-24.829h24.715V332.354z M229.746,282.016v24.715
	h-24.826v-24.715H229.746z M204.919,281.222v-24.826h24.826v24.826H204.919z M230.54,282.016h24.829v24.715H230.54V282.016z
	 M230.54,281.222v-24.826h24.829v24.826H230.54z M256.163,256.395h24.712v24.826h-24.712V256.395z M256.163,255.602v-24.826h24.712
	v24.826H256.163z M255.37,255.602h-24.829v-24.826h24.829V255.602z M230.54,229.982v-24.715h24.829v24.715H230.54z M229.746,229.982
	h-24.826v-24.715h24.826L229.746,229.982L229.746,229.982z M229.746,230.775v24.826h-24.826v-24.826H229.746z M204.126,255.602
	h-24.718v-24.826h24.718V255.602z M204.126,256.395v24.826h-24.718v-24.826H204.126z M178.614,281.222h-24.823v-24.826h24.823
	V281.222z M178.614,282.016v24.715h-24.823v-24.715H178.614z M179.407,282.016h24.718v24.715h-24.718V282.016z M204.126,307.525
	v24.829h-24.718v-24.829H204.126z M204.919,307.525h24.826v24.829h-24.826V307.525z M229.746,333.148v24.715h-24.826v-24.715
	H229.746z M230.54,333.148h24.829v24.715H230.54V333.148z M230.54,332.354v-24.829h24.829v24.829H230.54z M256.163,307.525h24.712
	v24.829h-24.712V307.525z M256.163,306.731v-24.715h24.712v24.715H256.163z M281.669,282.016h24.826v24.715h-24.826V282.016z
	 M281.669,281.222v-24.826h24.826v24.826H281.669z M307.289,256.395h24.712v24.826h-24.712V256.395z M307.289,255.602v-24.826
	h24.712v24.826H307.289z M306.495,255.602h-24.826v-24.826h24.826V255.602z M281.669,229.982v-24.715h24.826v24.715H281.669z
	 M280.875,229.982h-24.712v-24.715h24.712V229.982z M256.163,204.473v-24.829h24.712v24.829H256.163z M255.37,204.473h-24.829
	v-24.829h24.829V204.473z M230.54,178.85v-24.715h24.829v24.715H230.54z M229.746,178.85h-24.826v-24.715h24.826L229.746,178.85
	L229.746,178.85z M229.746,179.644v24.829h-24.826v-24.829H229.746z M204.126,204.473h-24.718v-24.829h24.718V204.473z
	 M204.126,205.267v24.715h-24.718v-24.715H204.126z M178.614,229.982h-24.823v-24.715h24.823V229.982z M178.614,230.775v24.826
	h-24.823v-24.826H178.614z M152.997,255.602h-24.718v-24.826h24.718V255.602z M152.997,256.395v24.826h-24.718v-24.826H152.997z
	 M152.997,282.016v24.715h-24.718v-24.715H152.997z M152.997,307.525v24.829h-24.718v-24.829H152.997z M153.791,307.525h24.823
	v24.829h-24.823V307.525z M178.614,333.148v24.715h-24.823v-24.715H178.614z M179.407,333.148h24.718v24.715h-24.718V333.148z
	 M204.126,358.657v24.823h-24.718v-24.823H204.126z M204.919,358.657h24.826v24.823h-24.826V358.657z M230.54,358.657h24.829v24.823
	H230.54V358.657z M256.163,358.657h24.712v24.823h-24.712V358.657z M256.163,357.863v-24.715h24.712v24.715H256.163z
	 M281.669,333.148h24.826v24.715h-24.826V333.148z M281.669,332.354v-24.829h24.826v24.829H281.669z M307.289,307.525h24.712v24.829
	h-24.712V307.525z M307.289,306.731v-24.715h24.712v24.715H307.289z M332.795,282.016h24.829v24.715h-24.829V282.016z
	 M332.795,281.222v-24.826h24.829v24.826H332.795z M332.795,255.602v-24.826h24.829v24.826H332.795z M332.795,229.982v-24.715
	h24.829v24.715H332.795z M332.001,229.982h-24.712v-24.715h24.712V229.982z M307.289,204.473v-24.829h24.712v24.829H307.289z
	 M306.495,204.473h-24.826v-24.829h24.826V204.473z M281.669,178.85v-24.715h24.826v24.715H281.669z M280.875,178.85h-24.712
	v-24.715h24.712V178.85z M256.163,153.34v-24.823h24.712v24.823H256.163z M255.37,153.34h-24.829v-24.823h24.829V153.34z
	 M229.746,153.34h-24.826v-24.823h24.826L229.746,153.34L229.746,153.34z M204.126,153.34h-24.718v-24.823h24.718V153.34z
	 M204.126,154.134v24.715h-24.718v-24.715H204.126z M178.614,178.85h-24.823v-24.715h24.823V178.85z M178.614,179.644v24.829
	h-24.823v-24.829H178.614z M152.997,204.473h-24.718v-24.829h24.718V204.473z M152.997,205.267v24.715h-24.718v-24.715H152.997z
	 M127.485,229.982h-24.826v-24.715h24.826V229.982z M127.485,230.775v24.826h-24.826v-24.826H127.485z M127.485,256.395v24.826
	h-24.826v-24.826H127.485z M127.485,282.016v24.715h-24.826v-24.715H127.485z M127.485,333.148v24.715h-24.826v-24.715H127.485z
	 M128.279,333.148h24.718v24.715h-24.718V333.148z M152.997,358.657v24.823h-24.718v-24.823H152.997z M153.791,358.657h24.823
	v24.823h-24.823V358.657z M178.614,384.273v24.715h-24.823v-24.715H178.614z M179.407,384.273h24.718v24.715h-24.718V384.273z
	 M204.919,384.273h24.826v24.715h-24.826V384.273z M230.54,384.273h24.829v24.715H230.54V384.273z M256.163,384.273h24.712v24.715
	h-24.712V384.273z M281.669,384.273h24.826v24.715h-24.826V384.273z M281.669,383.481v-24.823h24.826v24.823H281.669z
	 M307.289,358.657h24.712v24.823h-24.712V358.657z M307.289,357.863v-24.715h24.712v24.715H307.289z M332.795,333.148h24.829v24.715
	h-24.829V333.148z M332.795,332.354v-24.829h24.829v24.829H332.795z M358.418,307.525h24.715v24.829h-24.715V307.525z
	 M358.418,306.731v-24.715h24.715v24.715H358.418z M358.418,281.222v-24.826h24.715v24.826H358.418z M358.418,255.602v-24.826
	h24.715v24.826H358.418z M358.418,229.982v-24.715h24.715v24.715H358.418z M358.418,204.473v-24.829h24.715v24.829H358.418z
	 M357.625,204.473h-24.83v-24.829h24.829L357.625,204.473L357.625,204.473z M332.795,178.85v-24.715h24.829v24.715H332.795z
	 M332.001,178.85h-24.712v-24.715h24.712V178.85z M307.289,153.34v-24.823h24.712v24.823H307.289z M306.495,153.34h-24.826v-24.823
	h24.826V153.34z M281.669,127.723v-24.715h24.826v24.715H281.669z M280.875,127.723h-24.712v-24.715h24.712V127.723z
	 M255.37,127.723h-24.829v-24.715h24.829V127.723z M229.746,127.723h-24.826v-24.715h24.826L229.746,127.723L229.746,127.723z
	 M204.126,127.723h-24.718v-24.715h24.718V127.723z M178.614,127.723h-24.823v-24.715h24.823V127.723z M178.614,128.517v24.823
	h-24.823v-24.823H178.614z M152.997,153.34h-24.718v-24.823h24.718V153.34z M152.997,154.134v24.715h-24.718v-24.715H152.997z
	 M127.485,178.85h-24.826v-24.715h24.826V178.85z M127.485,179.644v24.829h-24.826v-24.829H127.485z M101.865,204.473H77.149
	v-24.829h24.715V204.473z M101.865,205.267v24.715H77.149v-24.715H101.865z M101.865,230.775v24.826H77.149v-24.826H101.865z
	 M101.865,256.395v24.826H77.149v-24.826H101.865z M101.865,282.016v24.715H77.149v-24.715H101.865z M76.355,306.731H51.529v-24.715
	h24.826C76.355,282.016,76.355,306.731,76.355,306.731z M76.355,307.525v24.829H51.529v-24.829H76.355z M76.355,333.148v24.715
	H51.529v-24.715H76.355z M77.149,333.148h24.715v24.715H77.149V333.148z M101.865,358.657v24.823H77.149v-24.823H101.865z
	 M102.658,358.657h24.826v24.823h-24.826V358.657z M127.485,384.273v24.715h-24.826v-24.715H127.485z M128.279,384.273h24.718
	v24.715h-24.718V384.273z M152.997,409.783v24.829h-24.718v-24.829H152.997z M153.791,409.783h24.823v24.829h-24.823V409.783z
	 M179.407,409.783h24.718v24.829h-24.718V409.783z M204.919,409.783h24.826v24.829h-24.826V409.783z M230.54,409.783h24.829v24.829
	H230.54V409.783z M256.163,409.783h24.712v24.829h-24.712V409.783z M281.669,409.783h24.826v24.829h-24.826V409.783z
	 M307.289,409.783h24.712v24.829h-24.712V409.783z M307.289,408.989v-24.715h24.712v24.715H307.289z M332.795,384.273h24.829v24.715
	h-24.829V384.273z M332.795,383.481v-24.823h24.829v24.823H332.795z M358.418,358.657h24.715v24.823h-24.715V358.657z
	 M358.418,357.863v-24.715h24.715v24.715H358.418z M383.927,333.148h24.826v24.715h-24.826V333.148z M383.927,332.354v-24.829
	h24.826v24.829H383.927z M383.927,306.731v-24.715h24.826v24.715H383.927z M383.927,281.222v-24.826h24.826v24.826H383.927z
	 M383.927,255.602v-24.826h24.826v24.826H383.927z M383.927,229.982v-24.715h24.826v24.715H383.927z M383.927,204.473v-24.829
	h24.826v24.829H383.927z M383.927,178.85v-24.715h24.826v24.715H383.927z M383.133,178.85h-24.715v-24.715h24.715V178.85z
	 M358.418,153.34v-24.823h24.715v24.823H358.418z M357.625,153.34h-24.83v-24.823h24.829L357.625,153.34L357.625,153.34z
	 M332.795,127.723v-24.715h24.829v24.715H332.795z M332.001,127.723h-24.712v-24.715h24.712V127.723z M307.289,102.215v-24.83
	h24.712v24.829L307.289,102.215L307.289,102.215z M306.495,102.215h-24.826v-24.83h24.826V102.215z M280.875,102.215h-24.712v-24.83
	h24.712V102.215z M255.37,102.215h-24.829v-24.83h24.829V102.215z M229.746,102.215h-24.826v-24.83h24.826L229.746,102.215
	L229.746,102.215z M204.126,102.215h-24.718v-24.83h24.718V102.215z M178.614,102.215h-24.823v-24.83h24.823V102.215z
	 M152.997,102.215h-24.718v-24.83h24.718V102.215z M152.997,103.008v24.715h-24.718v-24.715H152.997z M127.485,127.723h-24.826
	v-24.715h24.826V127.723z M127.485,128.517v24.823h-24.826v-24.823H127.485z M101.865,153.34H77.149v-24.823h24.715V153.34z
	 M101.865,154.134v24.715H77.149v-24.715H101.865z M76.355,178.85H51.529v-24.715h24.826
	C76.355,154.134,76.355,178.85,76.355,178.85z M76.355,179.644v24.829H51.529v-24.829H76.355z M76.355,205.267v24.715H51.529
	v-24.715H76.355z M76.355,230.775v24.826H51.529v-24.826H76.355z M76.355,256.395v24.826H51.529v-24.826H76.355z M26.024,282.016
	h24.712v24.715H26.024V282.016z M26.024,307.525h24.712v24.829H26.024V307.525z M26.024,357.863v-24.715h24.712v24.715H26.024z
	 M51.529,383.481v-24.823h24.826v24.823H51.529z M77.149,408.989v-24.715h24.715v24.715H77.149z M102.658,434.612v-24.829h24.826
	v24.829H102.658z M128.279,460.121v-24.715h24.718v24.715H128.279z M153.791,460.121v-24.715h24.823v24.715H153.791z
	 M179.407,460.121v-24.715h24.718v24.715H179.407z M204.919,460.121v-24.715h24.826v24.715H204.919z M230.54,460.121v-24.715h24.829
	v24.715H230.54z M256.163,460.121v-24.715h24.712v24.715H256.163z M281.669,460.121v-24.715h24.826v24.715H281.669z
	 M332.001,460.121h-24.712v-24.715h24.712V460.121z M357.625,434.612h-24.83v-24.829h24.829L357.625,434.612L357.625,434.612z
	 M383.133,408.989h-24.715v-24.715h24.715V408.989z M408.753,383.481h-24.826v-24.823h24.826V383.481z M434.263,357.863h-24.715
	v-24.715h24.715V357.863z M434.263,332.354h-24.715v-24.829h24.715V332.354z M434.263,306.731h-24.715v-24.715h24.715V306.731z
	 M434.263,281.222h-24.715v-24.826h24.715V281.222z M434.263,255.602h-24.715v-24.826h24.715V255.602z M434.263,229.982h-24.715
	v-24.715h24.715V229.982z M434.263,204.473h-24.715v-24.829h24.715V204.473z M434.263,154.134v24.715h-24.715v-24.715H434.263z
	 M408.753,128.517v24.823h-24.826v-24.823H408.753z M383.133,103.008v24.715h-24.715v-24.715H383.133z M357.625,77.385v24.829
	h-24.83V77.385H357.625z M332.001,51.876v24.715h-24.712V51.876H332.001z M306.495,51.876v24.715h-24.826V51.876H306.495z
	 M280.875,51.876v24.715h-24.712V51.876H280.875z M255.37,51.876v24.715h-24.829V51.876H255.37z M229.746,51.876v24.715h-24.826
	V51.876H229.746z M204.126,51.876v24.715h-24.718V51.876H204.126z M178.614,51.876v24.715h-24.823V51.876H178.614z M128.279,51.876
	h24.718v24.715h-24.718V51.876z M102.658,77.385h24.826v24.829h-24.826V77.385z M77.149,103.008h24.715v24.715H77.149V103.008z
	 M51.529,128.517h24.826v24.823H51.529V128.517z M26.024,154.134h24.712v24.715H26.024V154.134z M26.024,179.644h24.712v24.829
	H26.024V179.644z M26.024,205.267h24.712v24.715H26.024V205.267z M26.024,230.775h24.712v24.826H26.024V230.775z"/>
<path style="fill:#FFFFFF;" d="M451.194,192c-1.2-4.158-2.502-8.266-3.927-12.323l-40.013,70.042l-51.044-25.579l-75.883,126.434
	l-49.247-49.237l-51.13,25.505l-77.698-77.578l-51.17,51.176L0.13,250.91C0.092,252.609,0,254.294,0,256.002
	c0,2.774,0.111,5.52,0.21,8.269l50.971,49.545l51.082-51.085l75.81,75.695l51.126-25.506l53.018,53.015l77.615-129.323
	l51.218,25.664L451.194,192z"/>
<path style="fill:#D9D8D7;" d="M511.831,139.542l-11.688-42.831l-4.584,1.254c-0.006,0-0.013,0.003-0.019,0.006l-38.229,10.427
	c-2.536,0.695-4.034,3.31-3.342,5.847c0.692,2.539,3.301,4.034,5.85,3.342l27.15-7.409l-39.701,69.502
	c1.425,4.053,2.727,8.165,3.927,12.323l44.04-77.098l7.406,27.15c0.581,2.117,2.499,3.508,4.59,3.508
	c0.415,0,0.838-0.057,1.257-0.168C511.027,144.701,512.522,142.081,511.831,139.542z"/>
<circle style="fill:#FF6D3B;" cx="281.267" cy="358.258" r="17.066"/>
<circle style="fill:#FFFFFF;" cx="281.277" cy="358.258" r="8.866"/>
<circle style="fill:#242D3C;" cx="102.257" cy="256.001" r="17.066"/>
<circle style="fill:#FFFFFF;" cx="102.257" cy="256.001" r="8.866"/>
<g>
</g>
<g>
</g>
<g>
</g>
<g>
</g>
<g>
</g>
<g>
</g>
<g>
</g>
<g>
</g>
<g>
</g>
<g>
</g>
<g>
</g>
<g>
</g>
<g>
</g>
<g>
</g>
<g>
</g>
</svg>
