<?xml version="1.0" encoding="utf-8"?>
<!-- Generator: Adobe Illustrator 16.0.0, SVG Export Plug-In . SVG Version: 6.00 Build 0)  -->
<!DOCTYPE svg PUBLIC "-//W3C//DTD SVG 1.1//EN" "http://www.w3.org/Graphics/SVG/1.1/DTD/svg11.dtd">
<svg version="1.1" xmlns="http://www.w3.org/2000/svg" xmlns:xlink="http://www.w3.org/1999/xlink" x="0px" y="0px"
	 width="442.478px" height="277.778px" viewBox="0 0 442.478 277.778" enable-background="new 0 0 442.478 277.778"
	 xml:space="preserve">
<g id="Layer_2">
</g>
<g id="banner">
	<rect fill="#FBC02D" width="442.478" height="277.778"/>
	<g opacity="0.1">
		<g>
			<g>
				<path fill="#A7A9AC" d="M324.097,40.378c-2.726,0.66-4.951,2.842-4.951,5.442v4.813v82.35v4.813c0,2.6,2.226,4.784,4.953,5.44
					c2.726-0.656,4.952-2.84,4.952-5.44v-4.813v-82.35V45.82C329.051,43.22,326.824,41.038,324.097,40.378z"/>
				<g>
					<path fill="#FFFFFF" d="M324.004,40.217c-0.546-0.132-0.99-0.369-1.582-0.369h-63.989c-3.561,0-6.336,2.849-6.336,5.971v4.813
						v101.979h67.049V50.633V45.82C319.146,43.22,321.278,40.877,324.004,40.217z"/>
					<path fill="#231F20" d="M319.146,153.832h-67.049c-0.674,0-1.219-0.545-1.219-1.219V45.82c0-3.897,3.46-7.19,7.555-7.19h63.989
						c0.592,0,1.068,0.154,1.449,0.278c0.137,0.044,0.274,0.089,0.421,0.125c0.546,0.133,0.931,0.622,0.93,1.185
						c0,0.563-0.384,1.052-0.931,1.185c-2.238,0.542-3.927,2.441-3.927,4.417v106.792
						C320.364,153.286,319.819,153.832,319.146,153.832z M253.315,151.394h64.611V45.82c0-1.781,0.793-3.474,2.098-4.751h-61.592
						c-2.773,0-5.117,2.175-5.117,4.751V151.394z"/>
				</g>
				<g>
					<path fill="#FFFFFF" d="M324.227,143.249c0.547,0.135,1.026,0.221,1.621,0.221h63.985c3.56,0,6.266-2.551,6.266-5.673v-4.813
						V30.706h-67.048v102.278v4.813C329.051,140.396,326.952,142.591,324.227,143.249z"/>
					<path fill="#231F20" d="M389.833,144.688h-63.985c-0.766,0-1.372-0.123-1.912-0.256c-0.547-0.135-0.93-0.625-0.929-1.188
						c0.001-0.562,0.388-1.05,0.934-1.182c2.254-0.543,3.892-2.338,3.892-4.267V30.706c0-0.673,0.545-1.219,1.219-1.219h67.048
						c0.674,0,1.219,0.545,1.219,1.219v107.091C397.317,141.661,394.029,144.688,389.833,144.688z M328.403,142.25h61.43
						c2.83,0,5.047-1.957,5.047-4.454V31.925h-64.61v105.872C330.27,139.469,329.576,141.035,328.403,142.25z"/>
				</g>
			</g>
			<g>
				<line fill="#F1F2F2" x1="257.43" y1="52.04" x2="271.906" y2="52.04"/>
				<rect x="257.43" y="50.82" fill="#231F20" width="14.477" height="2.438"/>
			</g>
			<g>
				<line fill="#F1F2F2" x1="262.001" y1="59.658" x2="310.003" y2="59.658"/>
				<rect x="262.001" y="58.439" fill="#231F20" width="48.002" height="2.438"/>
			</g>
			<g>
				<line fill="#F1F2F2" x1="262.001" y1="132.803" x2="281.812" y2="132.803"/>
				<rect x="262.001" y="131.583" fill="#231F20" width="19.811" height="2.438"/>
			</g>
			<g>
				<line fill="#F1F2F2" x1="262.001" y1="141.946" x2="310.003" y2="141.946"/>
				<rect x="262.001" y="140.727" fill="#231F20" width="48.002" height="2.438"/>
			</g>
			<g>
				<line fill="#F1F2F2" x1="287.907" y1="132.803" x2="301.621" y2="132.803"/>
				<rect x="287.907" y="131.583" fill="#231F20" width="13.714" height="2.438"/>
			</g>
			<g>
				<line fill="#F1F2F2" x1="338.193" y1="114.517" x2="358.003" y2="114.517"/>
				<rect x="338.193" y="113.297" fill="#231F20" width="19.81" height="2.438"/>
			</g>
			<g>
				<line fill="#F1F2F2" x1="338.193" y1="81.754" x2="386.194" y2="81.754"/>
				<rect x="338.193" y="80.535" fill="#231F20" width="48.001" height="2.438"/>
			</g>
			<g>
				<line fill="#F1F2F2" x1="338.193" y1="89.374" x2="386.194" y2="89.374"/>
				<rect x="338.193" y="88.154" fill="#231F20" width="48.001" height="2.438"/>
			</g>
			<g>
				<line fill="#F1F2F2" x1="338.193" y1="96.992" x2="386.194" y2="96.992"/>
				<rect x="338.193" y="95.773" fill="#231F20" width="48.001" height="2.438"/>
			</g>
			<g>
				<line fill="#F1F2F2" x1="338.193" y1="105.373" x2="352.67" y2="105.373"/>
				<rect x="338.193" y="104.154" fill="#231F20" width="14.477" height="2.438"/>
			</g>
			<g>
				<line fill="#F1F2F2" x1="364.099" y1="114.517" x2="369.432" y2="114.517"/>
				<rect x="364.099" y="113.297" fill="#231F20" width="5.333" height="2.438"/>
			</g>
			<g>
				<line fill="#F1F2F2" x1="386.194" y1="132.041" x2="367.146" y2="132.041"/>
				<rect x="367.146" y="130.822" fill="#231F20" width="19.048" height="2.438"/>
			</g>
			<g>
				<line fill="#F1F2F2" x1="386.194" y1="122.898" x2="338.193" y2="122.898"/>
				<rect x="338.193" y="121.678" fill="#231F20" width="48.001" height="2.438"/>
			</g>
			<g>
				<line fill="#F1F2F2" x1="360.289" y1="132.041" x2="355.718" y2="132.041"/>
				<rect x="355.718" y="130.822" fill="#231F20" width="4.571" height="2.438"/>
			</g>
			<rect x="261.239" y="68.04" fill="#FFA432" width="48.764" height="36.572"/>
			<g>
				<line fill="#F1F2F2" x1="261.239" y1="111.469" x2="310.003" y2="111.469"/>
				<rect x="261.239" y="110.25" fill="#231F20" width="48.764" height="2.438"/>
			</g>
			<g>
				<line fill="#F1F2F2" x1="261.239" y1="119.85" x2="310.003" y2="119.85"/>
				<rect x="261.239" y="118.631" fill="#231F20" width="48.764" height="2.438"/>
			</g>
			<g>
				<line fill="#F1F2F2" x1="277.24" y1="99.279" x2="281.05" y2="99.279"/>
				<rect x="277.24" y="98.059" fill="#231F20" width="3.81" height="2.438"/>
			</g>
			<g>
				<line fill="#F1F2F2" x1="286.384" y1="99.279" x2="290.955" y2="99.279"/>
				<rect x="286.384" y="98.059" fill="#231F20" width="4.571" height="2.438"/>
			</g>
			<g>
				<rect x="338.955" y="39.087" fill="#BCBEC0" width="47.239" height="35.81"/>
				<g>
					<path fill="#231F20" d="M377.175,65.11l-18.599-10.718l-19.015,9.876l-1.124-2.164l19.607-10.184
						c0.37-0.191,0.81-0.182,1.171,0.026l19.177,11.051L377.175,65.11z"/>
				</g>
				<g>
					<path fill="#231F20" d="M385.786,60.35l-8.971-5.819l-6.425,5.708l-1.62-1.823l7.119-6.324c0.41-0.364,1.015-0.409,1.474-0.111
						l9.75,6.324L385.786,60.35z"/>
				</g>
				<circle fill="#FFFFFF" cx="367.058" cy="46.827" r="4.442"/>
			</g>
		</g>
		<g>
			<g>
				<path fill="#A7A9AC" d="M118.382,49.956c2.726,0.659,4.951,2.842,4.951,5.442v4.814v82.35v4.813c0,2.6-2.227,4.783-4.951,5.441
					c-2.727-0.658-4.953-2.841-4.953-5.441v-4.813v-82.35v-4.814C113.429,52.797,115.655,50.615,118.382,49.956z"/>
				<g>
					<path fill="#FFFFFF" d="M118.548,49.958c0.545-0.132,1.063-0.205,1.655-0.205h63.988c3.561,0,6.19,2.523,6.19,5.644v4.814
						v96.973h-67.049V60.211v-4.814C123.333,52.797,121.273,50.619,118.548,49.958z"/>
					<path fill="#231F20" d="M190.382,158.403h-67.049c-0.673,0-1.22-0.545-1.22-1.219V55.397c0-1.956-1.583-3.705-3.854-4.254
						c-0.546-0.133-0.931-0.622-0.932-1.185c0-0.563,0.385-1.052,0.932-1.185c0.671-0.163,1.289-0.239,1.943-0.239h63.988
						c4.154,0,7.409,3.015,7.409,6.863v101.787C191.601,157.857,191.055,158.403,190.382,158.403z M124.552,155.965h64.611V55.397
						c0-2.522-2.138-4.424-4.972-4.424h-61.473c1.152,1.209,1.833,2.765,1.833,4.424V155.965z"/>
				</g>
				<g>
					<path fill="#FFFFFF" d="M118.324,152.991c-0.548,0.134-0.954,0.384-1.548,0.384H52.791c-3.56,0-6.412-2.878-6.412-6v-4.813
						V40.611h67.05v101.951v4.813C113.429,149.975,115.6,152.334,118.324,152.991z"/>
					<path fill="#231F20" d="M116.776,154.593H52.791c-4.136,0-7.631-3.306-7.631-7.218V40.611c0-0.674,0.546-1.219,1.219-1.219
						h67.05c0.673,0,1.219,0.545,1.219,1.219v106.764c0,1.981,1.703,3.886,3.963,4.43c0.547,0.132,0.933,0.62,0.933,1.183
						c0.002,0.562-0.381,1.052-0.927,1.187c-0.149,0.037-0.283,0.085-0.417,0.132C117.832,154.434,117.373,154.593,116.776,154.593z
						 M47.599,41.83v105.545c0,2.547,2.427,4.78,5.192,4.78h61.583c-1.336-1.293-2.165-3.011-2.165-4.78V41.83H47.599z"/>
				</g>
			</g>
			<g>
				<line fill="#F1F2F2" x1="180.477" y1="61.945" x2="170.572" y2="61.945"/>
				<rect x="170.572" y="60.725" fill="#231F20" width="9.904" height="2.438"/>
			</g>
			<g>
				<line fill="#F1F2F2" x1="180.477" y1="69.563" x2="132.477" y2="69.563"/>
				<rect x="132.477" y="68.344" fill="#231F20" width="48" height="2.438"/>
			</g>
			<g>
				<line fill="#F1F2F2" x1="180.477" y1="142.708" x2="161.429" y2="142.708"/>
				<rect x="161.429" y="141.489" fill="#231F20" width="19.048" height="2.438"/>
			</g>
			<g>
				<line fill="#F1F2F2" x1="180.477" y1="151.089" x2="132.477" y2="151.089"/>
				<rect x="132.477" y="149.87" fill="#231F20" width="48" height="2.438"/>
			</g>
			<g>
				<line fill="#F1F2F2" x1="154.571" y1="142.708" x2="140.857" y2="142.708"/>
				<rect x="140.857" y="141.489" fill="#231F20" width="13.714" height="2.438"/>
			</g>
			<g>
				<line fill="#F1F2F2" x1="104.285" y1="123.66" x2="84.476" y2="123.66"/>
				<rect x="84.476" y="122.441" fill="#231F20" width="19.81" height="2.438"/>
			</g>
			<g>
				<line fill="#F1F2F2" x1="104.285" y1="90.897" x2="56.284" y2="90.897"/>
				<rect x="56.284" y="89.678" fill="#231F20" width="48.001" height="2.439"/>
			</g>
			<g>
				<line fill="#F1F2F2" x1="104.285" y1="99.279" x2="56.284" y2="99.279"/>
				<rect x="56.284" y="98.059" fill="#231F20" width="48.001" height="2.438"/>
			</g>
			<g>
				<line fill="#F1F2F2" x1="104.285" y1="106.898" x2="56.284" y2="106.898"/>
				<rect x="56.284" y="105.678" fill="#231F20" width="48.001" height="2.438"/>
			</g>
			<g>
				<line fill="#F1F2F2" x1="78.381" y1="123.66" x2="73.809" y2="123.66"/>
				<rect x="73.809" y="122.441" fill="#231F20" width="4.572" height="2.438"/>
			</g>
			<g>
				<line fill="#F1F2F2" x1="56.284" y1="141.946" x2="76.095" y2="141.946"/>
				<rect x="56.284" y="140.727" fill="#231F20" width="19.811" height="2.438"/>
			</g>
			<g>
				<line fill="#F1F2F2" x1="56.284" y1="132.803" x2="104.285" y2="132.803"/>
				<rect x="56.284" y="131.583" fill="#231F20" width="48.001" height="2.438"/>
			</g>
			<g>
				<line fill="#F1F2F2" x1="82.189" y1="141.946" x2="86.762" y2="141.946"/>
				<rect x="82.189" y="140.727" fill="#231F20" width="4.572" height="2.438"/>
			</g>
			<rect x="132.477" y="77.183" fill="#BCBEC0" width="48.762" height="36.572"/>
			<g>
				<line fill="#F1F2F2" x1="181.238" y1="121.374" x2="132.477" y2="121.374"/>
				<rect x="132.477" y="120.154" fill="#231F20" width="48.762" height="2.438"/>
			</g>
			<g>
				<line fill="#F1F2F2" x1="181.238" y1="129.755" x2="132.477" y2="129.755"/>
				<rect x="132.477" y="128.536" fill="#231F20" width="48.762" height="2.438"/>
			</g>
			<g>
				<line fill="#F1F2F2" x1="165.238" y1="109.184" x2="161.429" y2="109.184"/>
				<rect x="161.429" y="107.964" fill="#231F20" width="3.81" height="2.438"/>
			</g>
			<g>
				<line fill="#F1F2F2" x1="156.096" y1="109.184" x2="151.524" y2="109.184"/>
				<rect x="151.524" y="107.964" fill="#231F20" width="4.571" height="2.438"/>
			</g>
			<g>
				<rect x="56.284" y="48.992" fill="#18AFFE" width="47.239" height="35.81"/>
				<g>
					<path fill="#231F20" d="M65.449,74.688l-1.218-2.112l19.177-11.049c0.36-0.208,0.802-0.218,1.171-0.025l19.606,10.182
						l-1.123,2.164l-19.016-9.874L65.449,74.688z"/>
				</g>
				<g>
					<path fill="#231F20" d="M56.838,69.928l-1.327-2.046l9.75-6.323c0.46-0.299,1.063-0.253,1.473,0.111l7.119,6.322l-1.619,1.824
						l-6.425-5.707L56.838,69.928z"/>
				</g>
				<circle fill="#FFFFFF" cx="75.566" cy="56.406" r="4.442"/>
			</g>
		</g>
		<rect x="319.146" y="103.85" fill="#D1D3D4" width="25.905" height="24.381"/>
		<rect x="105.81" y="64.992" fill="#D1D3D4" width="25.904" height="24.382"/>
		<g>
			<path fill="#F1F2F2" d="M281.352,95.576c0-33.118-26.856-59.964-59.975-59.964c-33.117,0-60.004,26.847-60.004,59.964
				c0,29.324,21.39,53.727,48.818,58.935v80.388h22.096v-80.346C259.717,149.433,281.352,124.978,281.352,95.576z"/>
			<path fill="#231F20" d="M232.287,236.118h-22.096c-0.674,0-1.219-0.545-1.219-1.219v-79.387
				c-13.314-2.765-25.502-10.067-34.409-20.64c-9.293-11.03-14.41-24.986-14.41-39.296c0-33.737,27.465-61.183,61.224-61.183
				c33.742,0,61.194,27.446,61.194,61.183c0,14.334-5.162,28.321-14.536,39.383c-8.97,10.585-21.199,17.873-34.529,20.598v79.343
				C233.506,235.573,232.96,236.118,232.287,236.118z M211.411,233.681h19.657v-79.127c0-0.587,0.418-1.091,0.995-1.199
				c13.166-2.458,25.281-9.551,34.111-19.973c9.001-10.622,13.958-24.048,13.958-37.806c0-32.392-26.357-58.746-58.756-58.746
				c-32.415,0-58.785,26.354-58.785,58.746c0,13.736,4.914,27.134,13.836,37.725c8.769,10.408,20.84,17.515,33.991,20.012
				c0.575,0.109,0.992,0.612,0.992,1.198V233.681z"/>
		</g>
		<path fill="#18AFFE" d="M267.336,95.355c-0.12-25.214-20.531-45.625-45.745-45.746c-0.075,0-0.147-0.006-0.223-0.006
			c-12.581,0-23.979,5.059-32.279,13.25c-8.451,8.335-13.692,19.916-13.692,32.723c0,25.39,20.582,45.974,45.972,45.974
			c25.392,0,45.973-20.583,45.973-45.974C267.341,95.5,267.336,95.429,267.336,95.355z"/>
		<g>
			<rect x="210.191" y="153.679" fill="#231F20" width="10.667" height="2.438"/>
		</g>
		<rect x="202.572" y="170.898" fill="#A7A9AC" width="38.096" height="50.286"/>
		<g>
			<rect x="208.667" y="181.87" fill="#231F20" width="25.144" height="2.438"/>
		</g>
		<g>
			<rect x="208.667" y="194.823" fill="#231F20" width="25.144" height="2.438"/>
		</g>
		<g>
			<rect x="208.667" y="208.537" fill="#231F20" width="25.144" height="2.438"/>
		</g>
		<g>
			<path fill="#231F20" d="M221.368,142.769c-29.749-0.001-42.152-25.936-42.273-26.198l2.21-1.029
				c0.116,0.248,11.9,24.788,40.063,24.788V142.769z"/>
		</g>
		<g>
			<path fill="#231F20" d="M266.124,95.637c-0.807-16.045-7.465-28.375-19.789-36.648c-9.248-6.209-18.404-7.685-18.495-7.7
				l0.371-2.409c0.392,0.061,9.708,1.55,19.4,8.029c8.972,5.998,19.89,17.564,20.946,38.605L266.124,95.637z"/>
		</g>
		<g>
			<rect x="219.334" y="103.85" fill="#D1D3D4" width="99.812" height="24.381"/>
			<path fill="#231F20" d="M319.146,129.45h-99.812c-0.673,0-1.219-0.545-1.219-1.219V103.85c0-0.673,0.546-1.22,1.219-1.22h99.812
				c0.674,0,1.219,0.546,1.219,1.22v24.381C320.364,128.905,319.819,129.45,319.146,129.45z M220.553,127.012h97.374v-21.943
				h-97.374V127.012z"/>
		</g>
		<g>
			<rect x="131.714" y="64.992" fill="#FFA432" width="103.62" height="24.382"/>
			<path fill="#231F20" d="M235.334,90.593h-103.62c-0.673,0-1.219-0.545-1.219-1.219V64.992c0-0.672,0.546-1.219,1.219-1.219
				h103.62c0.674,0,1.22,0.546,1.22,1.219v24.382C236.554,90.047,236.008,90.593,235.334,90.593z M132.934,88.154h101.183V66.211
				H132.934V88.154z"/>
		</g>
		<g>
			<line fill="#D1D3D4" x1="319.146" y1="96.992" x2="319.146" y2="135.088"/>
			<rect x="317.927" y="96.992" fill="#231F20" width="2.438" height="38.096"/>
		</g>
		<g>
			<line fill="#D1D3D4" x1="131.714" y1="57.373" x2="131.714" y2="95.469"/>
			<rect x="130.495" y="57.373" fill="#231F20" width="2.438" height="38.097"/>
		</g>
		<rect x="229.239" y="110.708" opacity="0.8" fill="#FFFFFF" width="56.382" height="3.81"/>
		<rect x="229.239" y="117.564" opacity="0.8" fill="#FFFFFF" width="69.334" height="4.572"/>
		<rect x="290.955" y="110.708" opacity="0.8" fill="#FFFFFF" width="10.666" height="3.81"/>
		<rect x="165.238" y="77.944" opacity="0.7" fill="#FFFFFF" width="55.62" height="4.572"/>
		<rect x="151.524" y="71.087" opacity="0.7" fill="#FFFFFF" width="69.334" height="3.81"/>
		<rect x="148.477" y="77.944" opacity="0.7" fill="#FFFFFF" width="11.429" height="4.572"/>
		<g>
			<g>
				<path fill="#231F20" d="M332.757,124.083c-4.451,0-8.073-3.622-8.073-8.074c0-4.452,3.622-8.075,8.073-8.075
					c4.452,0,8.073,3.623,8.073,8.075C340.83,120.461,337.209,124.083,332.757,124.083z M332.757,110.373
					c-3.107,0-5.636,2.529-5.636,5.636s2.528,5.636,5.636,5.636s5.637-2.529,5.637-5.636S335.864,110.373,332.757,110.373z"/>
			</g>
			<g>
				<rect x="331.642" y="122.898" fill="#231F20" width="2.437" height="8.381"/>
			</g>
		</g>
		<g>
			<g>
				<path fill="#231F20" d="M118.416,86.91c-4.452,0-8.075-3.623-8.075-8.075c0-4.452,3.623-8.074,8.075-8.074
					c4.451,0,8.072,3.622,8.072,8.074C126.488,83.287,122.867,86.91,118.416,86.91z M118.416,73.2c-3.108,0-5.636,2.528-5.636,5.635
					s2.527,5.636,5.636,5.636c3.106,0,5.635-2.529,5.635-5.636S121.522,73.2,118.416,73.2z"/>
			</g>
			<g>
				<rect x="117.543" y="85.564" fill="#231F20" width="2.438" height="8.381"/>
			</g>
		</g>
		<g>
			<rect x="251.335" y="164.803" fill="#FFA432" width="124.192" height="11.429"/>
			<g>
				<polyline fill="#FFFFFF" points="375.527,234.899 375.527,176.232 251.335,176.232 251.335,234.899 				"/>
				<path fill="#231F20" d="M376.746,234.899h-2.438v-57.448H252.554v57.448h-2.438v-58.667c0-0.673,0.547-1.219,1.22-1.219h124.192
					c0.673,0,1.219,0.546,1.219,1.219V234.899z"/>
			</g>
		</g>
		<g>
			<rect x="256.669" y="168.156" fill="#231F20" width="4.57" height="2.438"/>
		</g>
		<g>
			<rect x="265.812" y="168.156" fill="#231F20" width="4.571" height="2.438"/>
		</g>
		<g>
			<rect x="274.192" y="168.156" fill="#231F20" width="4.571" height="2.438"/>
		</g>
		<g>
			<rect x="68.475" y="164.803" fill="#18AFFE" width="124.192" height="11.429"/>
			<g>
				<polyline fill="#FFFFFF" points="192.667,234.899 192.667,176.232 68.475,176.232 68.475,234.899 				"/>
				<path fill="#231F20" d="M193.886,234.899h-2.438v-57.448H69.694v57.448h-2.438v-58.667c0-0.673,0.546-1.219,1.219-1.219h124.192
					c0.674,0,1.219,0.546,1.219,1.219V234.899z"/>
			</g>
		</g>
		<g>
			<rect x="73.809" y="168.156" fill="#231F20" width="5.333" height="2.438"/>
		</g>
		<g>
			<rect x="82.952" y="168.156" fill="#231F20" width="4.57" height="2.438"/>
		</g>
		<g>
			<rect x="91.333" y="168.156" fill="#231F20" width="4.57" height="2.438"/>
		</g>
		<rect x="258.954" y="183.851" fill="#FFA432" width="5.333" height="2.286"/>
		<rect x="265.049" y="183.851" fill="#E6E7E8" width="4.572" height="2.286"/>
		<rect x="270.383" y="183.851" fill="#18AFFE" width="4.571" height="2.286"/>
		<g>
			<rect x="258.954" y="188.728" fill="#231F20" width="16" height="2.438"/>
		</g>
		<rect x="279.526" y="183.851" fill="#E6E7E8" width="59.429" height="7.619"/>
		<rect x="327.526" y="183.851" fill="#D1D3D4" width="11.429" height="7.619"/>
		<rect x="344.289" y="183.851" fill="#18AFFE" width="22.857" height="7.619"/>
		<rect x="336.67" y="197.565" fill="#E6E7E8" width="30.477" height="13.714"/>
		<rect x="336.67" y="220.423" fill="#E6E7E8" width="30.477" height="13.714"/>
		<g>
			<rect x="336.67" y="214.632" fill="#231F20" width="30.477" height="2.438"/>
		</g>
		<rect x="258.954" y="196.803" fill="#D1D3D4" width="59.43" height="3.048"/>
		<rect x="258.954" y="202.137" fill="#E6E7E8" width="31.238" height="3.81"/>
		<g>
			<rect x="258.954" y="208.537" fill="#231F20" width="40.381" height="2.438"/>
		</g>
		<g>
			<rect x="302.383" y="208.537" fill="#231F20" width="4.572" height="2.438"/>
		</g>
		<rect x="258.954" y="215.089" fill="#D1D3D4" width="59.43" height="3.048"/>
		<rect x="258.954" y="220.423" fill="#E6E7E8" width="31.238" height="3.048"/>
		<g>
			<rect x="258.954" y="226.824" fill="#231F20" width="40.381" height="2.437"/>
		</g>
		<g>
			<rect x="302.383" y="226.824" fill="#231F20" width="4.572" height="2.437"/>
		</g>
		<rect x="77.618" y="183.089" fill="#18AFFE" width="4.571" height="2.286"/>
		<rect x="82.952" y="183.089" fill="#E6E7E8" width="4.57" height="2.286"/>
		<rect x="88.285" y="183.089" fill="#FFA432" width="4.571" height="2.286"/>
		<g>
			<rect x="77.618" y="187.965" fill="#231F20" width="15.238" height="2.438"/>
		</g>
		<rect x="98.19" y="183.089" fill="#E6E7E8" width="58.667" height="7.619"/>
		<rect x="145.429" y="183.089" fill="#D1D3D4" width="11.429" height="7.619"/>
		<rect x="162.953" y="183.089" fill="#FFA432" width="22.095" height="7.619"/>
		<rect x="154.571" y="196.803" fill="#E6E7E8" width="30.477" height="13.715"/>
		<rect x="154.571" y="219.661" fill="#E6E7E8" width="30.477" height="10.667"/>
		<g>
			<rect x="154.571" y="213.871" fill="#231F20" width="30.477" height="2.438"/>
		</g>
		<rect x="77.618" y="196.042" fill="#D1D3D4" width="58.668" height="3.048"/>
		<rect x="77.618" y="201.375" fill="#E6E7E8" width="30.477" height="3.81"/>
		<g>
			<rect x="77.618" y="207.775" fill="#231F20" width="40.382" height="2.439"/>
		</g>
		<g>
			<rect x="121.048" y="207.775" fill="#231F20" width="3.81" height="2.439"/>
		</g>
		<rect x="77.618" y="214.328" fill="#D1D3D4" width="58.668" height="3.047"/>
		<rect x="77.618" y="219.661" fill="#E6E7E8" width="30.477" height="3.048"/>
		<g>
			<rect x="77.618" y="226.061" fill="#231F20" width="40.382" height="2.438"/>
		</g>
		<g>
			<rect x="121.048" y="226.061" fill="#231F20" width="3.81" height="2.438"/>
		</g>
		<g>
			<line fill="#BCBEC0" x1="156.857" y1="234.899" x2="281.812" y2="234.899"/>
			<rect x="156.857" y="233.681" fill="#231F20" width="124.954" height="2.438"/>
		</g>
		<g>
			<line fill="#BCBEC0" x1="351.908" y1="234.899" x2="390.767" y2="234.899"/>
			<rect x="351.908" y="233.681" fill="#231F20" width="38.858" height="2.438"/>
		</g>
		<g>
			<line fill="#BCBEC0" x1="79.904" y1="234.899" x2="49.427" y2="234.899"/>
			<rect x="49.427" y="233.681" fill="#231F20" width="30.478" height="2.438"/>
		</g>
	</g>
	<g>
		<path fill="#231F20" d="M19.315,85.623c1.564-0.272,3.91-0.476,6.324-0.476c3.297,0,5.541,0.544,7.071,1.835
			c1.258,1.054,1.972,2.652,1.972,4.59c0,2.958-2.006,4.963-4.147,5.745v0.102c1.632,0.612,2.618,2.21,3.195,4.419
			c0.714,2.856,1.326,5.508,1.802,6.392h-4.317c-0.34-0.68-0.884-2.55-1.53-5.405c-0.646-2.992-1.734-3.944-4.114-4.012h-2.107
			v9.417h-4.148V85.623z M23.463,95.754h2.481c2.822,0,4.59-1.496,4.59-3.774c0-2.516-1.768-3.671-4.488-3.671
			c-1.326,0-2.176,0.102-2.583,0.204V95.754z"/>
		<path fill="#231F20" d="M41.551,101.125c0.102,2.992,2.448,4.284,5.099,4.284c1.938,0,3.332-0.272,4.59-0.748l0.612,2.89
			c-1.428,0.578-3.4,1.02-5.779,1.02c-5.372,0-8.533-3.297-8.533-8.363c0-4.589,2.788-8.907,8.091-8.907
			c5.371,0,7.139,4.419,7.139,8.057c0,0.782-0.068,1.394-0.136,1.768H41.551z M48.826,98.202c0.034-1.53-0.646-4.046-3.434-4.046
			c-2.583,0-3.671,2.346-3.841,4.046H48.826z"/>
		<path fill="#231F20" d="M67.22,105.953h-0.068c-0.986,1.598-2.72,2.652-5.134,2.652c-3.706,0-6.935-3.229-6.935-8.397
			c0-6.051,3.875-8.907,7.411-8.907c2.312,0,3.944,0.986,4.828,2.55l0.068,0.034l0.102-2.209h4.045
			c-0.068,1.496-0.136,3.06-0.136,4.793v18.494H67.22V105.953z M67.22,98.507c0-0.34-0.034-0.714-0.102-1.02
			c-0.374-1.563-1.7-2.89-3.569-2.89c-2.686,0-4.216,2.278-4.216,5.406c0,3.025,1.462,5.303,4.114,5.303
			c1.7,0,3.093-1.088,3.569-2.753c0.136-0.408,0.204-0.884,0.204-1.292V98.507z"/>
		<path fill="#231F20" d="M90.713,103.267c0,1.972,0.068,3.604,0.136,4.963h-3.671l-0.204-2.516h-0.068
			c-0.714,1.19-2.346,2.89-5.304,2.89c-3.025,0-5.779-1.802-5.779-7.208v-9.723h4.182v9.009c0,2.754,0.884,4.521,3.094,4.521
			c1.666,0,2.753-1.19,3.195-2.244c0.136-0.374,0.238-0.816,0.238-1.292v-9.995h4.182V103.267z"/>
		<path fill="#231F20" d="M99.69,87.051c0,1.258-0.918,2.244-2.38,2.244c-1.394,0-2.312-0.986-2.312-2.244
			c0-1.292,0.952-2.278,2.346-2.278C98.772,84.773,99.656,85.759,99.69,87.051z M95.236,108.23V91.674h4.216v16.556H95.236z"/>
		<path fill="#231F20" d="M103.94,97.012c0-2.244-0.034-3.842-0.136-5.337h3.638l0.136,3.162h0.136
			c0.816-2.346,2.753-3.536,4.521-3.536c0.408,0,0.646,0.034,0.986,0.102v3.943c-0.34-0.068-0.714-0.136-1.224-0.136
			c-2.006,0-3.365,1.292-3.739,3.162c-0.068,0.374-0.136,0.816-0.136,1.292v8.567h-4.182V97.012z"/>
		<path fill="#231F20" d="M118.696,101.125c0.102,2.992,2.448,4.284,5.099,4.284c1.938,0,3.332-0.272,4.59-0.748l0.612,2.89
			c-1.428,0.578-3.4,1.02-5.779,1.02c-5.372,0-8.533-3.297-8.533-8.363c0-4.589,2.788-8.907,8.091-8.907
			c5.371,0,7.139,4.419,7.139,8.057c0,0.782-0.068,1.394-0.136,1.768H118.696z M125.971,98.202c0.034-1.53-0.646-4.046-3.434-4.046
			c-2.583,0-3.671,2.346-3.841,4.046H125.971z"/>
		<path fill="#231F20" d="M140.32,96.604c0-1.904-0.034-3.501-0.136-4.929h3.604l0.17,2.448h0.102
			c0.816-1.292,2.312-2.822,5.1-2.822c2.176,0,3.875,1.224,4.589,3.06h0.068c0.578-0.918,1.258-1.598,2.04-2.074
			c0.918-0.646,1.972-0.986,3.332-0.986c2.754,0,5.542,1.87,5.542,7.173v9.757h-4.08v-9.145c0-2.754-0.952-4.386-2.958-4.386
			c-1.428,0-2.482,1.02-2.924,2.21c-0.102,0.408-0.204,0.918-0.204,1.394v9.927h-4.08v-9.587c0-2.312-0.918-3.944-2.855-3.944
			c-1.564,0-2.618,1.224-2.992,2.38c-0.17,0.408-0.238,0.884-0.238,1.36v9.791h-4.08V96.604z"/>
		<path fill="#231F20" d="M184.892,99.799c0,6.085-4.284,8.805-8.5,8.805c-4.691,0-8.295-3.229-8.295-8.533
			c0-5.439,3.57-8.771,8.567-8.771C181.594,91.3,184.892,94.768,184.892,99.799z M172.415,99.969c0,3.196,1.564,5.609,4.114,5.609
			c2.38,0,4.045-2.346,4.045-5.677c0-2.584-1.156-5.542-4.011-5.542C173.605,94.36,172.415,97.216,172.415,99.969z"/>
		<path fill="#231F20" d="M188.327,97.012c0-2.244-0.034-3.842-0.136-5.337h3.638l0.136,3.162h0.136
			c0.816-2.346,2.753-3.536,4.521-3.536c0.408,0,0.646,0.034,0.986,0.102v3.943c-0.34-0.068-0.714-0.136-1.224-0.136
			c-2.006,0-3.365,1.292-3.739,3.162c-0.068,0.374-0.136,0.816-0.136,1.292v8.567h-4.182V97.012z"/>
		<path fill="#231F20" d="M203.083,101.125c0.102,2.992,2.448,4.284,5.099,4.284c1.938,0,3.332-0.272,4.59-0.748l0.612,2.89
			c-1.428,0.578-3.399,1.02-5.779,1.02c-5.372,0-8.533-3.297-8.533-8.363c0-4.589,2.788-8.907,8.091-8.907
			c5.371,0,7.139,4.419,7.139,8.057c0,0.782-0.068,1.394-0.136,1.768H203.083z M210.358,98.202c0.034-1.53-0.646-4.046-3.434-4.046
			c-2.583,0-3.671,2.346-3.841,4.046H210.358z"/>
		<path fill="#231F20" d="M225.182,108.23V94.802h-2.244v-3.127h2.244V90.96c0-2.142,0.578-4.283,2.006-5.643
			c1.224-1.156,2.89-1.598,4.317-1.598c1.122,0,2.006,0.17,2.686,0.408l-0.306,3.229c-0.442-0.17-1.02-0.306-1.768-0.306
			c-2.074,0-2.788,1.733-2.788,3.773v0.85h3.638v3.127h-3.604v13.429H225.182z"/>
		<path fill="#231F20" d="M250.375,103.267c0,1.972,0.067,3.604,0.136,4.963h-3.672l-0.203-2.516h-0.068
			c-0.714,1.19-2.346,2.89-5.304,2.89c-3.025,0-5.779-1.802-5.779-7.208v-9.723h4.182v9.009c0,2.754,0.884,4.521,3.094,4.521
			c1.666,0,2.754-1.19,3.195-2.244c0.136-0.374,0.238-0.816,0.238-1.292v-9.995h4.182V103.267z"/>
		<path fill="#231F20" d="M254.898,96.604c0-1.904-0.034-3.501-0.137-4.929h3.672l0.204,2.481h0.102
			c0.715-1.292,2.517-2.855,5.27-2.855c2.89,0,5.882,1.87,5.882,7.105v9.825h-4.182v-9.349c0-2.38-0.884-4.182-3.162-4.182
			c-1.665,0-2.821,1.19-3.264,2.448c-0.136,0.374-0.17,0.884-0.17,1.36v9.723h-4.215V96.604z"/>
		<path fill="#231F20" d="M286.516,107.721c-0.885,0.408-2.618,0.85-4.692,0.85c-5.167,0-8.533-3.297-8.533-8.431
			c0-4.963,3.4-8.839,9.214-8.839c1.529,0,3.094,0.34,4.045,0.782l-0.748,3.128c-0.68-0.306-1.665-0.646-3.161-0.646
			c-3.196,0-5.1,2.346-5.065,5.372c0,3.399,2.21,5.337,5.065,5.337c1.462,0,2.481-0.306,3.298-0.646L286.516,107.721z"/>
		<path fill="#231F20" d="M294.915,86.949v4.726h3.978v3.127h-3.978v7.31c0,2.005,0.544,3.06,2.142,3.06
			c0.714,0,1.258-0.102,1.632-0.204l0.068,3.196c-0.612,0.238-1.7,0.408-3.025,0.408c-1.53,0-2.822-0.51-3.604-1.36
			c-0.885-0.952-1.292-2.448-1.292-4.624v-7.785h-2.38v-3.127h2.38v-3.74L294.915,86.949z"/>
		<path fill="#231F20" d="M306.508,87.051c0,1.258-0.918,2.244-2.38,2.244c-1.394,0-2.312-0.986-2.312-2.244
			c0-1.292,0.952-2.278,2.346-2.278C305.59,84.773,306.474,85.759,306.508,87.051z M302.055,108.23V91.674h4.215v16.556H302.055z"/>
		<path fill="#231F20" d="M326.499,99.799c0,6.085-4.283,8.805-8.498,8.805c-4.692,0-8.296-3.229-8.296-8.533
			c0-5.439,3.57-8.771,8.568-8.771C323.202,91.3,326.499,94.768,326.499,99.799z M314.023,99.969c0,3.196,1.564,5.609,4.113,5.609
			c2.381,0,4.047-2.346,4.047-5.677c0-2.584-1.156-5.542-4.012-5.542C315.212,94.36,314.023,97.216,314.023,99.969z"/>
		<path fill="#231F20" d="M329.935,96.604c0-1.904-0.033-3.501-0.137-4.929h3.672l0.205,2.481h0.102
			c0.715-1.292,2.516-2.855,5.27-2.855c2.889,0,5.881,1.87,5.881,7.105v9.825h-4.182v-9.349c0-2.38-0.883-4.182-3.162-4.182
			c-1.664,0-2.82,1.19-3.264,2.448c-0.135,0.374-0.17,0.884-0.17,1.36v9.723h-4.215V96.604z"/>
		<path fill="#231F20" d="M358.696,108.23l-0.271-1.836h-0.102c-1.02,1.292-2.754,2.21-4.896,2.21c-3.33,0-5.201-2.414-5.201-4.93
			c0-4.182,3.707-6.289,9.826-6.255v-0.272c0-1.088-0.443-2.89-3.367-2.89c-1.631,0-3.33,0.51-4.453,1.224l-0.816-2.72
			c1.225-0.748,3.367-1.462,5.984-1.462c5.303,0,6.834,3.366,6.834,6.969v5.983c0,1.496,0.066,2.958,0.236,3.978H358.696z
			 M358.153,100.139c-2.957-0.068-5.779,0.578-5.779,3.094c0,1.632,1.053,2.38,2.379,2.38c1.666,0,2.891-1.088,3.264-2.278
			c0.102-0.306,0.137-0.646,0.137-0.918V100.139z"/>
		<path fill="#231F20" d="M366.653,84.093h4.215v24.138h-4.215V84.093z"/>
		<path fill="#231F20" d="M379.845,87.051c0,1.258-0.918,2.244-2.381,2.244c-1.393,0-2.311-0.986-2.311-2.244
			c0-1.292,0.951-2.278,2.346-2.278C378.927,84.773,379.81,85.759,379.845,87.051z M375.392,108.23V91.674h4.215v16.556H375.392z"/>
		<path fill="#231F20" d="M388.888,86.949v4.726h3.979v3.127h-3.979v7.31c0,2.005,0.545,3.06,2.143,3.06
			c0.713,0,1.258-0.102,1.631-0.204l0.068,3.196c-0.611,0.238-1.699,0.408-3.025,0.408c-1.529,0-2.822-0.51-3.604-1.36
			c-0.885-0.952-1.291-2.448-1.291-4.624v-7.785h-2.381v-3.127h2.381v-3.74L388.888,86.949z"/>
		<path fill="#231F20" d="M398.884,91.674l2.992,8.873c0.34,1.02,0.68,2.278,0.918,3.229h0.102c0.271-0.952,0.578-2.176,0.883-3.264
			l2.584-8.839h4.488l-4.148,11.287c-2.277,6.188-3.807,8.941-5.779,10.641c-1.631,1.462-3.332,2.006-4.385,2.142l-0.953-3.536
			c0.715-0.17,1.6-0.544,2.449-1.156c0.781-0.51,1.699-1.496,2.277-2.618c0.17-0.306,0.271-0.544,0.271-0.748
			c0-0.17-0.033-0.408-0.238-0.816l-6.051-15.196H398.884z"/>
		<path fill="#231F20" d="M415.782,101.227l-0.068-0.884c-0.17-1.768,0.441-3.638,2.039-5.576c1.293-1.53,2.143-2.72,2.143-4.045
			c0-1.428-0.885-2.38-2.789-2.414c-1.189,0-2.549,0.374-3.398,1.02l-1.02-2.991c1.223-0.782,3.195-1.394,5.336-1.394
			c4.217,0,6.154,2.448,6.154,5.167c0,2.448-1.496,4.147-2.957,5.813c-1.326,1.563-1.871,2.958-1.803,4.589l0.035,0.714H415.782z
			 M414.931,105.953c0-1.564,1.088-2.652,2.584-2.652c1.531,0,2.551,1.088,2.584,2.652c0,1.496-1.02,2.652-2.584,2.652
			C415.985,108.604,414.931,107.449,414.931,105.953z"/>
	</g>
	<g>
		<g>
			<path fill="#424242" d="M77.02,204.67c0,1.104,0.896,2,2,2h284.436c1.104,0,2-0.896,2-2v-55.734c0-1.104-0.896-2-2-2H79.02
				c-1.104,0-2,0.896-2,2V204.67z"/>
		</g>
		<g>
			<path fill="#FFFFFF" d="M113.2,184.083c-0.946,0.352-2.794,0.836-4.774,0.836c-2.508,0-4.401-0.638-5.809-1.98
				c-1.32-1.254-2.09-3.212-2.068-5.457c0-4.687,3.345-7.701,8.251-7.701c1.826,0,3.256,0.375,3.938,0.704l-0.594,2.179
				c-0.814-0.352-1.804-0.638-3.366-0.638c-3.168,0-5.391,1.87-5.391,5.325c0,3.367,2.068,5.369,5.149,5.369
				c0.968,0,1.694-0.132,2.046-0.308v-3.696h-2.619v-2.134h5.237V184.083z"/>
			<path fill="#FFFFFF" d="M124.266,178.186h-5.589v4.357h6.249v2.222h-8.956v-14.83h8.625v2.222h-5.919v3.829h5.589V178.186z"/>
			<path fill="#FFFFFF" d="M130.359,172.201h-4.225v-2.266h11.199v2.266h-4.269v12.564h-2.706V172.201z"/>
			<path fill="#FFFFFF" d="M146.594,180.563l-1.276,4.203h-2.794l4.753-14.83h3.455l4.818,14.83h-2.904l-1.342-4.203H146.594z
				 M150.841,178.516l-1.166-3.652c-0.286-0.902-0.528-1.915-0.749-2.772h-0.044c-0.22,0.858-0.44,1.892-0.704,2.772l-1.144,3.652
				H150.841z"/>
			<path fill="#FFFFFF" d="M157.615,170.133c1.188-0.198,2.707-0.308,4.313-0.308c2.772,0,4.687,0.572,6.051,1.716
				c1.43,1.167,2.31,2.927,2.31,5.457c0,2.64-0.902,4.621-2.31,5.897c-1.474,1.342-3.829,2.024-6.711,2.024
				c-1.584,0-2.772-0.088-3.653-0.198V170.133z M160.322,182.697c0.374,0.066,0.946,0.066,1.496,0.066
				c3.521,0.022,5.611-1.914,5.611-5.677c0.022-3.278-1.87-5.148-5.259-5.148c-0.858,0-1.474,0.066-1.848,0.154V182.697z"/>
			<path fill="#FFFFFF" d="M172.641,170.133c1.188-0.198,2.707-0.308,4.313-0.308c2.772,0,4.687,0.572,6.051,1.716
				c1.43,1.167,2.31,2.927,2.31,5.457c0,2.64-0.902,4.621-2.31,5.897c-1.474,1.342-3.829,2.024-6.711,2.024
				c-1.584,0-2.772-0.088-3.653-0.198V170.133z M175.348,182.697c0.374,0.066,0.946,0.066,1.496,0.066
				c3.521,0.022,5.611-1.914,5.611-5.677c0.022-3.278-1.87-5.148-5.259-5.148c-0.858,0-1.474,0.066-1.848,0.154V182.697z"/>
			<path fill="#FFFFFF" d="M200.825,177.196c0,4.973-3.015,7.811-7.107,7.811c-4.181,0-6.821-3.19-6.821-7.547
				c0-4.555,2.86-7.767,7.041-7.767C198.273,169.693,200.825,172.972,200.825,177.196z M189.757,177.416
				c0,3.015,1.519,5.413,4.115,5.413c2.619,0,4.093-2.42,4.093-5.523c0-2.794-1.386-5.435-4.093-5.435
				C191.188,171.871,189.757,174.357,189.757,177.416z"/>
			<path fill="#FFFFFF" d="M203.155,184.765v-14.83h3.081l3.829,6.359c0.99,1.65,1.848,3.366,2.53,4.973h0.044
				c-0.176-1.98-0.242-3.895-0.242-6.161v-5.171h2.508v14.83h-2.794l-3.873-6.513c-0.946-1.628-1.937-3.454-2.663-5.126
				l-0.066,0.022c0.11,1.914,0.132,3.873,0.132,6.315v5.303H203.155z"/>
			<path fill="#FFFFFF" d="M217.961,181.817c0.88,0.506,2.201,0.946,3.586,0.946c1.738,0,2.707-0.814,2.707-2.024
				c0-1.123-0.748-1.783-2.64-2.464c-2.442-0.88-4.005-2.179-4.005-4.313c0-2.42,2.024-4.269,5.237-4.269
				c1.606,0,2.794,0.352,3.564,0.748l-0.66,2.178c-0.528-0.286-1.562-0.704-2.948-0.704c-1.716,0-2.464,0.924-2.464,1.783
				c0,1.144,0.858,1.672,2.838,2.442c2.574,0.968,3.829,2.267,3.829,4.401c0,2.376-1.804,4.445-5.633,4.445
				c-1.563,0-3.19-0.44-4.004-0.924L217.961,181.817z"/>
			<path fill="#FFFFFF" d="M247.157,177.196c0,4.973-3.015,7.811-7.107,7.811c-4.181,0-6.821-3.19-6.821-7.547
				c0-4.555,2.86-7.767,7.041-7.767C244.604,169.693,247.157,172.972,247.157,177.196z M236.089,177.416
				c0,3.015,1.519,5.413,4.115,5.413c2.618,0,4.093-2.42,4.093-5.523c0-2.794-1.387-5.435-4.093-5.435
				C237.519,171.871,236.089,174.357,236.089,177.416z"/>
			<path fill="#FFFFFF" d="M249.487,170.133c1.012-0.176,2.53-0.308,4.093-0.308c2.134,0,3.586,0.352,4.576,1.188
				c0.814,0.682,1.276,1.716,1.276,2.97c0,1.915-1.299,3.213-2.685,3.719v0.066c1.057,0.396,1.694,1.43,2.068,2.86
				c0.462,1.848,0.858,3.564,1.166,4.137h-2.794c-0.221-0.44-0.572-1.65-0.99-3.499c-0.418-1.936-1.122-2.552-2.663-2.596h-1.363
				v6.095h-2.685V170.133z M252.171,176.69h1.605c1.826,0,2.971-0.968,2.971-2.442c0-1.628-1.145-2.376-2.904-2.376
				c-0.858,0-1.408,0.066-1.672,0.132V176.69z"/>
			<path fill="#FFFFFF" d="M268.516,172.201h-4.225v-2.266h11.2v2.266h-4.269v12.564h-2.707V172.201z"/>
			<path fill="#FFFFFF" d="M279.934,169.935v5.941h6.271v-5.941h2.707v14.83h-2.707v-6.535h-6.271v6.535h-2.706v-14.83H279.934z"/>
			<path fill="#FFFFFF" d="M300.307,178.186h-5.589v4.357h6.249v2.222h-8.955v-14.83h8.625v2.222h-5.919v3.829h5.589V178.186z"/>
			<path fill="#FFFFFF" d="M315.862,178.714c-0.088-1.915-0.199-4.225-0.176-6.227h-0.066c-0.484,1.804-1.1,3.807-1.76,5.677
				l-2.156,6.425h-2.091l-1.98-6.337c-0.571-1.892-1.1-3.917-1.496-5.765h-0.044c-0.065,1.937-0.154,4.291-0.264,6.315l-0.33,5.963
				h-2.53l0.99-14.83h3.564l1.936,5.963c0.528,1.738,0.99,3.499,1.364,5.148h0.066c0.396-1.606,0.902-3.432,1.475-5.17l2.046-5.941
				h3.521l0.857,14.83h-2.641L315.862,178.714z"/>
			<path fill="#FFFFFF" d="M329.831,178.186h-5.588v4.357h6.248v2.222h-8.955v-14.83h8.625v2.222h-5.918v3.829h5.588V178.186z"/>
			<path fill="#FFFFFF" d="M332.8,181.817c0.881,0.506,2.201,0.946,3.588,0.946c1.738,0,2.705-0.814,2.705-2.024
				c0-1.123-0.748-1.783-2.641-2.464c-2.441-0.88-4.004-2.179-4.004-4.313c0-2.42,2.025-4.269,5.236-4.269
				c1.607,0,2.795,0.352,3.564,0.748l-0.66,2.178c-0.527-0.286-1.563-0.704-2.947-0.704c-1.717,0-2.465,0.924-2.465,1.783
				c0,1.144,0.857,1.672,2.838,2.442c2.574,0.968,3.828,2.267,3.828,4.401c0,2.376-1.803,4.445-5.633,4.445
				c-1.561,0-3.189-0.44-4.004-0.924L332.8,181.817z"/>
		</g>
	</g>
</g>
</svg>
