<?xml version="1.0" encoding="iso-8859-1"?>
<!-- Generator: Adobe Illustrator 19.0.0, SVG Export Plug-In . SVG Version: 6.00 Build 0)  -->
<svg version="1.1" id="Layer_1" xmlns="http://www.w3.org/2000/svg" xmlns:xlink="http://www.w3.org/1999/xlink" x="0px" y="0px"
	 viewBox="0 0 473.931 473.931" style="enable-background:new 0 0 473.931 473.931;" xml:space="preserve">
<circle style="fill:#D7DABA;" cx="236.966" cy="236.966" r="236.966"/>
<path style="fill:#8B4097;" d="M144.395,93.791c-8.823,0-15.981,7.154-15.981,15.981v255.757c0,8.827,7.158,15.981,15.981,15.981
	H328.22c8.827,0,15.981-7.154,15.981-15.981V167.814l-77.047-74.023H144.395z"/>
<g>
	<path style="fill:#7B3A87;" d="M344.205,167.814h-61.066c-8.827,0-15.981-7.154-15.981-15.981V93.791L344.205,167.814z"/>
	<path style="fill:#7B3A87;" d="M263.966,271.772c0,10.189-8.258,18.447-18.443,18.447H110.876
		c-10.189,0-18.443-8.258-18.443-18.447v-56.351c0-10.189,8.254-18.443,18.443-18.443h134.647c10.185,0,18.443,8.254,18.443,18.443
		V271.772z"/>
</g>
<g>
	<path style="fill:#FFFFFF;" d="M141.068,249.665h-6.956v10.615c0,1.519-0.359,2.668-1.074,3.454
		c-0.715,0.786-1.62,1.175-2.713,1.175c-1.145,0-2.065-0.389-2.761-1.164c-0.696-0.775-1.048-1.916-1.048-3.416v-28.901
		c0-1.673,0.385-2.866,1.152-3.581c0.767-0.715,1.987-1.074,3.659-1.074h9.744c2.885,0,5.096,0.221,6.649,0.666
		c1.534,0.427,2.862,1.134,3.977,2.122c1.115,0.988,1.961,2.2,2.544,3.633s0.868,3.042,0.868,4.834c0,3.82-1.175,6.713-3.528,8.685
		S145.723,249.665,141.068,249.665z M139.227,232.476h-5.115v11.461h5.115c1.792,0,3.285-0.187,4.49-0.561
		c1.197-0.374,2.114-0.988,2.746-1.841c0.632-0.853,0.947-1.968,0.947-3.353c0-1.654-0.486-3.001-1.459-4.041
		C144.862,233.029,142.621,232.476,139.227,232.476z"/>
	<path style="fill:#FFFFFF;" d="M169.101,230.736v10.743h16.396v-10.743c0-1.534,0.344-2.687,1.036-3.454
		c0.688-0.767,1.598-1.152,2.724-1.152c1.145,0,2.069,0.382,2.773,1.137c0.707,0.76,1.063,1.916,1.063,3.465v29.545
		c0,1.553-0.359,2.713-1.074,3.48c-0.715,0.767-1.639,1.152-2.761,1.152c-1.145,0-2.054-0.389-2.735-1.164
		c-0.681-0.775-1.021-1.931-1.021-3.465v-12.61h-16.396v12.61c0,1.553-0.359,2.713-1.074,3.48c-0.715,0.767-1.639,1.152-2.761,1.152
		c-1.145,0-2.054-0.389-2.735-1.164c-0.681-0.775-1.021-1.931-1.021-3.465v-29.545c0-1.534,0.337-2.687,1.01-3.454
		c0.677-0.767,1.594-1.152,2.75-1.152c1.145,0,2.069,0.382,2.773,1.137C168.746,228.03,169.101,229.187,169.101,230.736z"/>
	<path style="fill:#FFFFFF;" d="M215.81,249.665h-6.956v10.615c0,1.519-0.359,2.668-1.074,3.454
		c-0.715,0.786-1.62,1.175-2.713,1.175c-1.145,0-2.065-0.389-2.761-1.164c-0.696-0.775-1.048-1.916-1.048-3.416v-28.901
		c0-1.673,0.385-2.866,1.152-3.581c0.767-0.715,1.987-1.074,3.659-1.074h9.744c2.885,0,5.096,0.221,6.649,0.666
		c1.534,0.427,2.862,1.134,3.977,2.122c1.115,0.988,1.961,2.2,2.544,3.633s0.868,3.042,0.868,4.834c0,3.82-1.175,6.713-3.528,8.685
		S220.465,249.665,215.81,249.665z M213.965,232.476h-5.115v11.461h5.115c1.792,0,3.285-0.187,4.49-0.561
		c1.197-0.374,2.114-0.988,2.746-1.841c0.632-0.853,0.947-1.968,0.947-3.353c0-1.654-0.486-3.001-1.459-4.041
		C219.6,233.029,217.363,232.476,213.965,232.476z"/>
</g>
<g>
</g>
<g>
</g>
<g>
</g>
<g>
</g>
<g>
</g>
<g>
</g>
<g>
</g>
<g>
</g>
<g>
</g>
<g>
</g>
<g>
</g>
<g>
</g>
<g>
</g>
<g>
</g>
<g>
</g>
</svg>
