<?xml version="1.0" encoding="iso-8859-1"?>
<!-- Generator: Adobe Illustrator 19.0.0, SVG Export Plug-In . SVG Version: 6.00 Build 0)  -->
<svg version="1.1" id="Layer_1" xmlns="http://www.w3.org/2000/svg" xmlns:xlink="http://www.w3.org/1999/xlink" x="0px" y="0px"
	 viewBox="0 0 512 512" style="enable-background:new 0 0 512 512;" xml:space="preserve">
<path style="fill:#E1EFFA;" d="M512,256.003c0,141.381-114.611,255.995-256,255.995c-141.386,0-256-114.614-256-255.995
	c0-141.389,114.614-256,256-256C397.389,0.003,512,114.614,512,256.003z"/>
<path style="fill:#BCD4E8;" d="M505.869,311.606l-59.479-59.479c-1.06-1.06-2.486-1.608-3.878-1.608H390.29l-24.504-24.504
	c-6.106-6.144-14.116-9.18-22.159-9.18h-42.46l-5.709-5.716c-0.635-0.806-1.477-1.434-2.458-1.797
	c-0.054-0.02-0.12-0.036-0.182-0.056c-0.53-0.177-1.083-0.294-1.667-0.294h-0.806c-2.995,0-5.491,2.486-5.491,5.486v17.011v16.891
	l-20.035-20.037c-0.036-0.036-0.077-0.072-0.113-0.113c-0.036-0.036-0.11-0.069-0.146-0.108c-1.024-0.991-2.378-1.503-3.73-1.503
	h-19.348l-15.685-15.69l-0.008-0.005c-0.179-0.205-0.366-0.394-0.568-0.568l-0.01-0.008l-0.008-0.008
	c-0.468-0.399-0.993-0.73-1.577-0.96c-0.044-0.015-0.092-0.028-0.138-0.044c-0.576-0.212-1.185-0.343-1.828-0.343h-0.801
	c-2.998,0-5.486,2.486-5.486,5.486v2.381h-32.737h-14.259c-8.046,0-16.054,3.036-22.162,9.18c-6.147,6.111-9.18,14.116-9.18,22.157
	h-9.4c-0.622,0-1.208,0.225-1.682,0.694c-0.438,0.443-0.694,1.062-0.694,1.651H69.486c-1.39,0-2.816,0.548-3.876,1.608
	c-1.06,1.057-1.61,2.483-1.61,3.873s0.548,2.816,1.608,3.876l245.993,245.993C408.333,484.436,484.436,408.335,505.869,311.606z"/>
<path style="fill:#34495E;" d="M215.378,295.186h-47.012c-8.02,0-16.041-3.075-22.162-9.185c-6.121-6.118-9.175-14.136-9.175-22.172
	v-15.654c0-8.033,3.054-16.054,9.175-22.172c6.121-6.111,14.141-9.185,22.162-9.185h47.014v78.369H215.378z"/>
<path style="fill:#667A8C;" d="M146.432,251.692c-1.948,0-3.525-1.58-3.525-3.52c0-6.804,2.642-13.204,7.452-18.007
	c4.815-4.818,11.205-7.473,18.007-7.473c1.953,0,3.525,1.587,3.525,3.525c0,1.953-1.574,3.533-3.525,3.533
	c-4.915,0-9.539,1.917-13.018,5.394c-3.479,3.484-5.396,8.105-5.396,13.028C149.952,250.112,148.378,251.692,146.432,251.692z"/>
<g>
	<path style="fill:#283A4D;" d="M227.139,297.526c0,3.021-2.46,5.494-5.481,5.494h-0.788c-3.021,0-5.491-2.473-5.491-5.494v-83.049
		c0-3.021,2.47-5.494,5.491-5.494h0.788c3.021,0,5.481,2.473,5.481,5.494V297.526z"/>
	<path style="fill:#283A4D;" d="M125.271,261.489c0,0.589,0.233,1.203,0.689,1.656c0.461,0.466,1.06,0.684,1.664,0.684h9.405
		v-15.654h-9.405c-0.604,0-1.203,0.218-1.664,0.681c-0.456,0.456-0.689,1.062-0.689,1.656V261.489z"/>
</g>
<path style="fill:#34495E;" d="M69.486,250.511c-1.4,0-2.808,0.532-3.876,1.615c-1.068,1.06-1.61,2.473-1.61,3.876
	c0,1.398,0.54,2.808,1.608,3.876c1.068,1.075,2.476,1.608,3.876,1.608h55.785v-10.977H69.486V250.511z"/>
<path style="fill:#E1EFFA;" d="M264.707,228.219c-1.073-1.068-2.47-1.6-3.873-1.6h-33.695v10.977h33.697
	c1.403,0,2.801-0.54,3.873-1.608c1.075-1.088,1.61-2.478,1.61-3.884S265.782,229.286,264.707,228.219z"/>
<path style="fill:#F6F8FB;" d="M263.726,233.08c-0.533,0-0.975-0.428-0.975-0.975c0-0.512-0.197-0.991-0.563-1.354
	c-0.358-0.366-0.85-0.568-1.352-0.568h-31.109c-0.54,0-0.983-0.435-0.983-0.983c0-0.54,0.443-0.975,0.983-0.975h31.109
	c1.039,0,2.004,0.407,2.739,1.137c0.732,0.737,1.132,1.7,1.132,2.747C264.707,232.65,264.271,233.08,263.726,233.08z"/>
<path style="fill:#E1EFFA;" d="M264.707,276.019c-1.073-1.075-2.47-1.595-3.873-1.595h-33.695v10.962h33.697
	c1.403,0,2.801-0.54,3.873-1.592c1.075-1.083,1.61-2.488,1.61-3.899C266.317,278.492,265.782,277.1,264.707,276.019z"/>
<path style="fill:#F6F8FB;" d="M263.726,280.881c-0.533,0-0.975-0.443-0.975-0.986c0-0.504-0.197-0.996-0.563-1.347
	c-0.358-0.366-0.85-0.568-1.352-0.568h-31.109c-0.54,0-0.983-0.43-0.983-0.978c0-0.54,0.443-0.983,0.983-0.983h31.109
	c1.039,0,2.004,0.399,2.739,1.137c0.732,0.73,1.132,1.708,1.132,2.737C264.707,280.438,264.271,280.881,263.726,280.881z"/>
<g>
	<rect x="227.149" y="226.611" style="fill:#34495E;" width="10.967" height="10.977"/>
	<rect x="227.149" y="274.432" style="fill:#34495E;" width="10.967" height="10.962"/>
	<path style="fill:#34495E;" d="M296.617,295.186h47.017c8.02,0,16.049-3.075,22.164-9.185c6.113-6.118,9.167-14.136,9.167-22.172
		v-15.654c0-8.033-3.054-16.054-9.167-22.172c-6.118-6.111-14.144-9.185-22.164-9.185h-47.017V295.186z"/>
</g>
<g>
	<path style="fill:#283A4D;" d="M284.864,297.526c0,3.021,2.458,5.494,5.484,5.494h0.783c3.023,0,5.489-2.473,5.489-5.494v-83.049
		c0-3.021-2.465-5.494-5.489-5.494h-0.783c-3.026,0-5.484,2.473-5.484,5.494V297.526z"/>
	<path style="fill:#283A4D;" d="M386.724,261.489c0,0.589-0.225,1.203-0.686,1.656c-0.463,0.466-1.06,0.684-1.664,0.684h-9.408
		v-15.654h9.408c0.604,0,1.203,0.218,1.664,0.681c0.461,0.456,0.686,1.062,0.686,1.656V261.489z"/>
</g>
<path style="fill:#34495E;" d="M442.511,250.511c1.403,0,2.811,0.532,3.878,1.615c1.068,1.062,1.608,2.473,1.608,3.878
	c0,1.398-0.54,2.808-1.608,3.876c-1.068,1.075-2.476,1.608-3.878,1.608h-55.788v-10.977L442.511,250.511L442.511,250.511z"/>
<g>
</g>
<g>
</g>
<g>
</g>
<g>
</g>
<g>
</g>
<g>
</g>
<g>
</g>
<g>
</g>
<g>
</g>
<g>
</g>
<g>
</g>
<g>
</g>
<g>
</g>
<g>
</g>
<g>
</g>
</svg>
