<?xml version="1.0" encoding="iso-8859-1"?>
<!-- Generator: Adobe Illustrator 19.0.0, SVG Export Plug-In . SVG Version: 6.00 Build 0)  -->
<svg version="1.1" id="Layer_1" xmlns="http://www.w3.org/2000/svg" xmlns:xlink="http://www.w3.org/1999/xlink" x="0px" y="0px"
	 viewBox="0 0 512 512" style="enable-background:new 0 0 512 512;" xml:space="preserve">
<path style="fill:#E2574C;" d="M256,0c141.384,0,256,114.616,256,256S397.384,512,256,512S0,397.384,0,256S114.616,0,256,0z"/>
<path style="fill:#DADFE1;" d="M435.2,368.64H76.8l0.005,70.118C122.988,484.045,186.214,512,256,512s133.012-27.955,179.195-73.242
	L435.2,368.64z M435.2,281.6H76.8c0,0,0.01,141.051,0.01,98.391c0,19.18,32.594,34.724,72.801,34.724v0.005h201.59v-0.005
	c46.397,0,83.988-17.935,83.988-40.064C435.19,422.656,435.2,281.6,435.2,281.6L435.2,281.6z M435.2,215.04H76.8
	c0,0,0.01,120.571,0.01,77.911c0,19.18,31.14,34.724,69.545,34.724v0.005h201.088v-0.005c48.476,0,87.752-17.935,87.752-40.064
	L435.2,215.04z"/>
<g>
	<path style="fill:#E1E5E7;" d="M384,477.665c18.683-10.813,35.886-23.895,51.2-38.912V209.92H384V477.665z M76.8,438.753
		c15.314,15.017,32.512,28.093,51.2,38.912V220.16H76.8V438.753z"/>
</g>
<path style="fill:#F2F1EF;" d="M367.043,171.505C362.132,147.128,319.58,128,267.203,128c-40.535,0-75.238,10.358-91.238,26.824
	c-4.813-0.732-9.83-1.234-15.145-1.234c-27.837,0-50.401,11.889-50.401,25.16c0,2.642,0.625,6.733,2.273,9.103
	c-21.647,6.021-35.876,15.473-35.876,28.288c0,19.18,32.594,34.724,72.801,34.724v0.015h201.59v-0.005
	c46.397,0,83.988-17.935,83.988-40.069C435.19,191.268,405.847,175.043,367.043,171.505L367.043,171.505z"/>
<path style="fill:#9ECEC7;" d="M273.92,276.48c-4.239,0-7.68,3.441-7.68,7.68c0,4.239,3.441,7.68,7.68,7.68
	c4.239,0,7.68-3.441,7.68-7.68C281.6,279.921,278.159,276.48,273.92,276.48z M273.92,363.52c-4.239,0-7.68,3.441-7.68,7.68
	s3.441,7.68,7.68,7.68c4.239,0,7.68-3.441,7.68-7.68S278.159,363.52,273.92,363.52z M335.36,450.56c-4.239,0-7.68,3.441-7.68,7.68
	s3.441,7.68,7.68,7.68s7.68-3.441,7.68-7.68S339.599,450.56,335.36,450.56z M273.92,450.56c-4.239,0-7.68,3.441-7.68,7.68
	s3.441,7.68,7.68,7.68c4.239,0,7.68-3.441,7.68-7.68S278.159,450.56,273.92,450.56z"/>
<path style="fill:#3DB39E;" d="M304.64,276.48c-4.239,0-7.68,3.441-7.68,7.68c0,4.239,3.441,7.68,7.68,7.68s7.68-3.441,7.68-7.68
	C312.32,279.921,308.879,276.48,304.64,276.48z M335.36,291.84c4.239,0,7.68-3.441,7.68-7.68c0-4.239-3.441-7.68-7.68-7.68
	s-7.68,3.441-7.68,7.68C327.68,288.399,331.121,291.84,335.36,291.84z M304.64,363.52c-4.239,0-7.68,3.441-7.68,7.68
	s3.441,7.68,7.68,7.68s7.68-3.441,7.68-7.68S308.879,363.52,304.64,363.52z M335.36,363.52c-4.239,0-7.68,3.441-7.68,7.68
	s3.441,7.68,7.68,7.68s7.68-3.441,7.68-7.68S339.599,363.52,335.36,363.52z M304.64,450.56c-4.239,0-7.68,3.441-7.68,7.68
	s3.441,7.68,7.68,7.68s7.68-3.441,7.68-7.68S308.879,450.56,304.64,450.56z"/>
<path style="fill:#C4C8CA;" d="M230.4,271.36h-76.8c-2.826,0-5.12,2.289-5.12,5.12v5.12c0,2.831,2.294,5.12,5.12,5.12h76.8
	c2.826,0,5.12-2.289,5.12-5.12v-5.12C235.52,273.649,233.226,271.36,230.4,271.36z M230.4,291.84h-76.8
	c-2.826,0-5.12,2.289-5.12,5.12v5.12c0,2.831,2.294,5.12,5.12,5.12h76.8c2.826,0,5.12-2.289,5.12-5.12v-5.12
	C235.52,294.129,233.226,291.84,230.4,291.84z M230.4,358.4h-76.8c-2.826,0-5.12,2.289-5.12,5.12v5.12c0,2.831,2.294,5.12,5.12,5.12
	h76.8c2.826,0,5.12-2.289,5.12-5.12v-5.12C235.52,360.689,233.226,358.4,230.4,358.4z M230.4,378.88h-76.8
	c-2.826,0-5.12,2.289-5.12,5.12v5.12c0,2.831,2.294,5.12,5.12,5.12h76.8c2.826,0,5.12-2.289,5.12-5.12V384
	C235.52,381.169,233.226,378.88,230.4,378.88z M230.4,445.44h-76.8c-2.826,0-5.12,2.289-5.12,5.12v5.12
	c0,2.831,2.294,5.12,5.12,5.12h76.8c2.826,0,5.12-2.289,5.12-5.12v-5.12C235.52,447.729,233.226,445.44,230.4,445.44z M230.4,465.92
	h-76.8c-2.826,0-5.12,2.289-5.12,5.12v5.12c0,2.831,2.294,5.12,5.12,5.12h76.8c2.826,0,5.12-2.289,5.12-5.12v-5.12
	C235.52,468.209,233.226,465.92,230.4,465.92z"/>
<path style="fill:#CECDCB;" d="M256,163.84c-28.278,0-51.2,10.117-51.2,25.6s22.922,25.6,51.2,25.6s51.2-11.459,51.2-25.6
	C307.2,175.304,284.278,163.84,256,163.84z M281.17,183.526l-29.266,16.02c-1.219,0.666-2.862,0.901-4.449,0.799
	c-1.797,0.256-3.779,0.046-5.181-0.727l-11.525-6.308c-2.12-1.157-2.12-3.031,0-4.188c2.115-1.157,5.545-1.157,7.66,0l8.637,4.731
	l26.491-14.5c2.109-1.157,5.524-1.157,7.634,0C283.279,180.5,283.279,182.374,281.17,183.526z"/>
<path style="fill:#AEB2B4;" d="M435.2,368.64l-0.01,15.974v-9.964c0,22.129-37.591,40.064-83.988,40.064v0.005h-201.59v-0.005
	c-40.207,0-72.801-15.544-72.801-34.724v8.038V368.64H76.8v30.008c12.646,14.3,39.798,23.747,72.812,23.747l201.59,0.005
	c38.072-0.005,69.98-11.525,83.999-28.37V368.64z M435.2,281.6l-0.01,17.306v-11.295c0,22.129-39.276,40.064-87.752,40.064v0.005
	H146.35v-0.005c-38.405,0-69.545-15.544-69.545-34.724v9.134V281.6H76.8v30.029c12.375,14.157,38.538,23.726,69.55,23.726
	l201.088,0.005c40.433-0.005,73.457-11.351,87.762-28.349V281.6z"/>
<g>
	<path style="fill:#BFC2C4;" d="M435.19,298.906v-11.295c0,16.164-21.002,30.054-51.19,36.388v7.962
		c23.286-4.567,41.528-13.46,51.2-24.95V281.6h-0.005L435.19,298.906L435.19,298.906z M128,334.177v-7.762
		c-29.486-4.024-51.19-17.464-51.19-33.464v8.74V281.6H76.8v30.029C86.641,322.883,105.216,331.218,128,334.177z"/>
</g>
<g>
	<path style="fill:#BFC2C4;" d="M435.19,383.468v-8.817c0,16.579-21.1,30.802-51.19,36.895v7.793
		c23.076-4.485,41.462-13.609,51.2-25.308v-25.39h-0.005L435.19,383.468L435.19,383.468z M128,420.946v-7.788
		c-29.655-4.388-51.19-17.582-51.19-33.172v7.68v-19.031H76.8v30.008C86.554,409.682,104.955,417.797,128,420.946z"/>
</g>
<g>
</g>
<g>
</g>
<g>
</g>
<g>
</g>
<g>
</g>
<g>
</g>
<g>
</g>
<g>
</g>
<g>
</g>
<g>
</g>
<g>
</g>
<g>
</g>
<g>
</g>
<g>
</g>
<g>
</g>
</svg>
