<svg enable-background="new 0 0 91 92.43848" height="92.43848" viewBox="0 0 91 92.43848" width="91" xmlns="http://www.w3.org/2000/svg"><g opacity=".1"><path d="m0 0v92.43848h91v-92.43848zm26.97607 6.83398h51.07568v7.19385h-51.07568zm0 9.35157h57.90967v4.03125h-57.90967zm-.35937 5.27148h52.51416v3.7207h-52.51416zm18.8833 28.53906h-39.38525v-17.26464h39.38525zm-31.83203-44.24121c4.37012 0 7.91309 3.54297 7.91309 7.91309s-3.54297 7.91309-7.91309 7.91309-7.91309-3.54297-7.91309-7.91309 3.54297-7.91309 7.91309-7.91309zm52.1543 77.33203h-60.06739v-5.03564h60.06738v5.03564zm0-9.71142h-60.06739v-5.03564h60.06738v5.03564zm0-8.99219h-60.06739v-5.03564h60.06738v5.03564zm19.42285-14.38721h-39.38526v-17.26464h39.38525v17.26464z"/><path d="m57.18994 35.96826h15.82568v4.67578h-15.82568z"/><path d="m9.71143 43.16211h31.65234v3.95654h-31.65234z"/><path d="m17.98438 35.96826h15.82568v4.67578h-15.82568z"/><path d="m48.91699 43.16211h31.65234v3.95654h-31.65234z"/></g></svg>