<?xml version="1.0" encoding="utf-8"?>
<!-- Generator: Adobe Illustrator 16.0.0, SVG Export Plug-In . SVG Version: 6.00 Build 0)  -->
<!DOCTYPE svg PUBLIC "-//W3C//DTD SVG 1.1//EN" "http://www.w3.org/Graphics/SVG/1.1/DTD/svg11.dtd">
<svg version="1.1" id="Layer_1" xmlns="http://www.w3.org/2000/svg" xmlns:xlink="http://www.w3.org/1999/xlink" x="0px" y="0px"
	 width="91px" height="92.43848px" viewBox="0 0 91 92.43848" enable-background="new 0 0 91 92.43848" xml:space="preserve">
<g opacity="0.1">
	<path d="M0,0v92.43848h91V0H0z M26.97607,6.83398h51.07568v7.19385H26.97607V6.83398z M26.97607,16.18555h57.90967v4.03125
		H26.97607V16.18555z M26.6167,21.45703h52.51416v3.7207H26.6167V21.45703z M45.5,49.99609H6.11475V32.73145H45.5V49.99609z
		 M13.66797,5.75488c4.37012,0,7.91309,3.54297,7.91309,7.91309s-3.54297,7.91309-7.91309,7.91309s-7.91309-3.54297-7.91309-7.91309
		S9.29785,5.75488,13.66797,5.75488z M65.82227,83.08691H5.75488v-5.03564h60.06738V83.08691z M65.82227,73.37549H5.75488v-5.03564
		h60.06738V73.37549z M65.82227,64.3833H5.75488v-5.03564h60.06738V64.3833z M85.24512,49.99609H45.85986V32.73145h39.38525
		V49.99609z"/>
	<rect x="57.18994" y="35.96826" width="15.82568" height="4.67578"/>
	<rect x="9.71143" y="43.16211" width="31.65234" height="3.95654"/>
	<rect x="17.98438" y="35.96826" width="15.82568" height="4.67578"/>
	<rect x="48.91699" y="43.16211" width="31.65234" height="3.95654"/>
</g>
</svg>
